<svg width="961" height="1282" viewBox="0 0 961 1282" fill="none" xmlns="http://www.w3.org/2000/svg">
<rect x="1" width="960" height="1281" fill="#4F6A84"/>
<path d="M637.747 345H610.611V302.312H619.699V337H637.747V345ZM659.488 345.768C649.312 345.768 643.168 338.344 643.168 329.512C643.168 320.744 649.312 313.32 659.488 313.32C669.728 313.32 675.872 320.744 675.872 329.512C675.872 338.344 669.728 345.768 659.488 345.768ZM659.488 338.536C664.544 338.536 667.424 334.376 667.424 329.512C667.424 324.712 664.544 320.552 659.488 320.552C654.432 320.552 651.616 324.712 651.616 329.512C651.616 334.376 654.432 338.536 659.488 338.536ZM696.494 357.544C691.182 357.544 687.086 356.328 683.182 352.936L686.83 347.048C689.326 349.8 692.59 350.888 696.494 350.888C700.398 350.888 705.006 349.16 705.006 343.08V339.944C702.574 343.016 699.246 344.808 695.47 344.808C687.726 344.808 681.838 339.368 681.838 329.064C681.838 318.952 687.662 313.32 695.47 313.32C699.182 313.32 702.51 314.92 705.006 318.056V314.088H713.198V342.888C713.198 354.664 704.11 357.544 696.494 357.544ZM698.03 337.576C700.718 337.576 703.662 336.04 705.006 334.056V324.072C703.662 322.024 700.718 320.552 698.03 320.552C693.422 320.552 690.222 323.752 690.222 329.064C690.222 334.376 693.422 337.576 698.03 337.576ZM727.211 310.76C724.587 310.76 722.347 308.584 722.347 305.896C722.347 303.208 724.587 301.096 727.211 301.096C729.899 301.096 732.075 303.208 732.075 305.896C732.075 308.584 729.899 310.76 727.211 310.76ZM731.307 345H723.179V314.088H731.307V345ZM770.279 345H762.151V326.312C762.151 322.024 759.911 320.552 756.455 320.552C753.255 320.552 750.759 322.344 749.415 324.2V345H741.287V314.088H749.415V318.12C751.399 315.752 755.175 313.32 760.231 313.32C767.015 313.32 770.279 317.16 770.279 323.176V345Z" fill="white"/>
<path d="M189.355 766H180.267V723.312H200.235C209.515 723.312 214.571 729.584 214.571 737.072C214.571 744.496 209.451 750.832 200.235 750.832H189.355V766ZM199.019 742.832C202.603 742.832 205.291 740.592 205.291 737.072C205.291 733.488 202.603 731.312 199.019 731.312H189.355V742.832H199.019ZM247.37 766H239.242V762.8C237.13 765.296 233.482 766.768 229.45 766.768C224.522 766.768 218.698 763.44 218.698 756.528C218.698 749.296 224.522 746.544 229.45 746.544C233.546 746.544 237.194 747.888 239.242 750.32V746.16C239.242 743.024 236.554 740.976 232.458 740.976C229.13 740.976 226.058 742.192 223.434 744.624L220.362 739.184C224.138 735.856 229.002 734.32 233.866 734.32C240.906 734.32 247.37 737.136 247.37 746.032V766ZM232.714 761.264C235.338 761.264 237.898 760.368 239.242 758.576V754.736C237.898 752.944 235.338 752.048 232.714 752.048C229.514 752.048 226.89 753.712 226.89 756.72C226.89 759.6 229.514 761.264 232.714 761.264ZM268.488 766.768C263.112 766.768 257.928 764.976 254.664 761.968L258.184 756.272C260.424 758.384 265.032 760.496 268.872 760.496C272.392 760.496 274.056 759.088 274.056 757.168C274.056 752.048 255.688 756.208 255.688 744.048C255.688 738.864 260.232 734.32 268.36 734.32C273.608 734.32 277.768 736.112 280.84 738.544L277.576 744.112C275.72 742.128 272.2 740.528 268.424 740.528C265.48 740.528 263.56 741.872 263.56 743.6C263.56 748.208 281.864 744.368 281.864 756.848C281.864 762.48 277.064 766.768 268.488 766.768ZM300.909 766.768C295.533 766.768 290.349 764.976 287.085 761.968L290.605 756.272C292.845 758.384 297.453 760.496 301.293 760.496C304.813 760.496 306.477 759.088 306.477 757.168C306.477 752.048 288.109 756.208 288.109 744.048C288.109 738.864 292.653 734.32 300.781 734.32C306.029 734.32 310.189 736.112 313.261 738.544L309.997 744.112C308.141 742.128 304.621 740.528 300.845 740.528C297.901 740.528 295.981 741.872 295.981 743.6C295.981 748.208 314.285 744.368 314.285 756.848C314.285 762.48 309.485 766.768 300.909 766.768ZM357.968 766H349.328L342.8 744.944L336.272 766H327.568L318.16 735.088H326.608L332.368 755.888L339.152 735.088H346.384L353.168 755.888L358.928 735.088H367.376L357.968 766ZM387.636 766.768C377.46 766.768 371.316 759.344 371.316 750.512C371.316 741.744 377.46 734.32 387.636 734.32C397.876 734.32 404.02 741.744 404.02 750.512C404.02 759.344 397.876 766.768 387.636 766.768ZM387.636 759.536C392.692 759.536 395.572 755.376 395.572 750.512C395.572 745.712 392.692 741.552 387.636 741.552C382.58 741.552 379.764 745.712 379.764 750.512C379.764 755.376 382.58 759.536 387.636 759.536ZM420.098 766H411.97V735.088H420.098V739.312C422.274 736.56 426.114 734.32 429.954 734.32V742.256C429.378 742.128 428.61 742.064 427.714 742.064C425.026 742.064 421.442 743.6 420.098 745.584V766ZM466.393 766H458.201V762.032C455.769 765.104 452.377 766.768 448.665 766.768C440.857 766.768 434.969 760.88 434.969 750.576C434.969 740.464 440.793 734.32 448.665 734.32C452.313 734.32 455.769 735.92 458.201 739.056V723.312H466.393V766ZM451.161 759.536C453.913 759.536 456.857 758.064 458.201 756.016V745.072C456.857 743.024 453.913 741.552 451.161 741.552C446.553 741.552 443.353 745.2 443.353 750.576C443.353 755.888 446.553 759.536 451.161 759.536Z" fill="white"/>
<g clip-path="url(#clip0_108_13)">
<path d="M67.8585 1370.08C-42.5984 1369.95 -132.037 1280.29 -131.908 1169.84C-131.78 1059.38 -42.1322 969.948 68.3246 970.083C141.584 970.173 205.627 1009.63 240.423 1068.53C258.038 1098.34 268.135 1133.12 268.091 1170.33C267.963 1280.79 178.315 1370.22 67.8585 1370.08Z" stroke="#DB5472" stroke-width="48"/>
</g>
<circle cx="746" cy="1081" r="10" fill="#DB5472"/>
<circle cx="746" cy="1161" r="10" fill="#DB5472"/>
<circle cx="746" cy="1121" r="10" fill="#DB5472"/>
<circle cx="746" cy="1201" r="10" fill="#DB5472"/>
<circle cx="786" cy="1081" r="10" fill="#DB5472"/>
<circle cx="786" cy="1161" r="10" fill="#DB5472"/>
<circle cx="786" cy="1121" r="10" fill="#DB5472"/>
<circle cx="786" cy="1201" r="10" fill="#DB5472"/>
<circle cx="826" cy="1081" r="10" fill="#DB5472"/>
<circle cx="826" cy="1161" r="10" fill="#DB5472"/>
<circle cx="826" cy="1121" r="10" fill="#DB5472"/>
<circle cx="826" cy="1201" r="10" fill="#DB5472"/>
<circle cx="866" cy="1081" r="10" fill="#DB5472"/>
<circle cx="866" cy="1161" r="10" fill="#DB5472"/>
<circle cx="866" cy="1121" r="10" fill="#DB5472"/>
<circle cx="866" cy="1201" r="10" fill="#DB5472"/>
<rect x="0.731873" y="811" width="560" height="20" fill="#DB5472"/>
<rect x="400.732" y="406" width="560" height="20" fill="#DB5472"/>
<path d="M917.053 267.309L909.344 275.018L898.335 264.009L906.044 256.3C909.085 253.259 914.016 253.259 917.053 256.3C920.091 259.34 920.094 264.268 917.053 267.309ZM912.647 276.115C913.256 275.509 914.244 275.509 914.85 276.115C915.46 276.725 915.46 277.712 914.85 278.318L886.225 306.946C885.616 307.553 884.628 307.553 884.022 306.946C883.416 306.34 883.416 305.353 884.022 304.746L902.741 286.028L887.322 270.609L893.928 264.006L909.344 279.421L912.647 276.115ZM887.325 275.018L898.335 286.028L854.291 330.071L843.281 319.062L887.325 275.018ZM833.372 339.981L841.078 321.265L852.088 332.275L833.372 339.981Z" fill="#DB5472"/>
<path d="M37.0309 688.309L44.7403 696.018L55.7497 685.009L48.0403 677.3C44.9997 674.259 40.0684 674.259 37.0309 677.3C33.9934 680.34 33.9903 685.268 37.0309 688.309ZM41.4372 697.115C40.8278 696.509 39.8403 696.509 39.234 697.115C38.6247 697.725 38.6247 698.712 39.234 699.318L67.859 727.946C68.4684 728.553 69.4559 728.553 70.0622 727.946C70.6684 727.34 70.6684 726.353 70.0622 725.746L51.3434 707.028L66.7622 691.609L60.1559 685.006L44.7403 700.421L41.4372 697.115ZM66.759 696.018L55.7497 707.028L99.7934 751.071L110.803 740.062L66.759 696.018ZM120.712 760.981L113.006 742.265L101.997 753.275L120.712 760.981Z" fill="#DB5472"/>
<path d="M644.349 613.318L818.205 501.32L825.777 711.855L644.349 613.318Z" stroke="#DB5472" stroke-width="28"/>
<g clip-path="url(#clip1_108_13)">
<path d="M377.195 250.694L179.18 341.979L193.115 372.207L391.13 280.922L377.195 250.694Z" fill="white"/>
<path d="M227.01 306.537L217.015 311.145L201.998 278.568L203.876 317.202L199.543 319.199L171.387 292.68L186.404 325.256L176.48 329.831L155.031 283.303L168.939 276.892L193.22 299.785L191.582 266.453L205.56 260.01L227.01 306.537ZM264.678 290.187C250.491 296.727 239.976 291.932 234.702 280.492L221.807 252.52L231.871 247.88L244.605 275.504C247.596 281.992 253.428 284.716 260.626 281.398C267.825 278.079 269.471 271.907 266.48 265.42L253.745 237.796L263.879 233.125L276.742 261.027C282.081 272.607 278.865 283.647 264.678 290.187ZM311.425 267.622L301.501 272.197L280.051 225.669L289.975 221.094L311.425 267.622ZM353.176 248.375L340.736 254.109L301.256 215.894L312.578 210.675L342.004 240.499L338.366 198.786L349.688 193.567L353.176 248.375Z" fill="white"/>
<path fill-rule="evenodd" clip-rule="evenodd" d="M190.314 105.722L278.2 160.032L294.986 51.4306L346.478 182.388L147.19 274.259L81.0513 150.054L174.534 207.823L190.314 105.722Z" fill="white"/>
</g>
<defs>
<clipPath id="clip0_108_13">
<rect width="334.693" height="291.963" fill="white" transform="matrix(-0.00116535 0.999999 -0.999999 -0.00122764 292.352 946.358)"/>
</clipPath>
<clipPath id="clip1_108_13">
<rect width="236" height="249" fill="white" transform="translate(80.7163 149.837) rotate(-24.7497)"/>
</clipPath>
</defs>
</svg>
