<svg width="368" height="389" viewBox="0 0 368 389" fill="none" xmlns="http://www.w3.org/2000/svg">
<rect x="14" y="337" width="340" height="52" fill="white"/>
<path d="M104.868 318H87.7075V261.96L65.1475 318H57.7075L35.1475 261.96V318H18.1075V237.96H41.9875L61.4275 286.32L80.8675 237.96H104.868V318ZM168.884 319.44C144.524 319.44 132.764 305.76 132.764 286.08V237.96H150.044V285.48C150.044 296.64 156.524 304.32 168.884 304.32C181.244 304.32 187.604 296.64 187.604 285.48V237.96H205.004V285.96C205.004 305.88 193.244 319.44 168.884 319.44ZM249.812 318H232.772V237.96H249.812V318ZM321.501 318H300.141L269.181 237.96H288.621L310.821 299.52L332.901 237.96H352.341L321.501 318Z" fill="white"/>
<path fill-rule="evenodd" clip-rule="evenodd" d="M184 9.09357L273 143.627L367.667 0.526978L355.093 220H12.9074L0.332825 0.527041L95 143.627L184 9.09357Z" fill="white"/>
</svg>
