<svg width="1207" height="389" viewBox="0 0 1207 389" fill="none" xmlns="http://www.w3.org/2000/svg">
<rect x="14" y="337" width="340" height="52" fill="#C21631"/>
<path d="M530.069 301H439.569V134.25H527.319C559.069 134.25 575.319 154.5 575.319 176.75C575.319 197.75 562.319 211.75 546.569 215C564.319 217.75 578.569 235 578.569 256C578.569 281 561.819 301 530.069 301ZM519.569 201C531.569 201 539.069 193.5 539.069 183C539.069 172.5 531.569 164.75 519.569 164.75H475.069V201H519.569ZM520.819 270.25C534.319 270.25 542.319 263 542.319 251C542.319 240.5 534.819 231.5 520.819 231.5H475.069V270.25H520.819ZM661.341 301H629.591V180.25H661.341V196.75C669.841 186 684.841 177.25 699.841 177.25V208.25C697.591 207.75 694.591 207.5 691.091 207.5C680.591 207.5 666.591 213.5 661.341 221.25V301ZM848.929 301H817.179V288.5C808.929 298.25 794.679 304 778.929 304C759.679 304 736.929 291 736.929 264C736.929 235.75 759.679 225 778.929 225C794.929 225 809.179 230.25 817.179 239.75V223.5C817.179 211.25 806.679 203.25 790.679 203.25C777.679 203.25 765.679 208 755.429 217.5L743.429 196.25C758.179 183.25 777.179 177.25 796.179 177.25C823.679 177.25 848.929 188.25 848.929 223V301ZM791.679 282.5C801.929 282.5 811.929 279 817.179 272V257C811.929 250 801.929 246.5 791.679 246.5C779.179 246.5 768.929 253 768.929 264.75C768.929 276 779.179 282.5 791.679 282.5ZM1018.67 301H986.921V228C986.921 211.25 978.171 205.5 964.671 205.5C952.171 205.5 942.421 212.5 937.171 219.75V301H905.421V180.25H937.171V196C944.921 186.75 959.671 177.25 979.421 177.25C1005.92 177.25 1018.67 192.25 1018.67 215.75V301ZM1190.2 301H1158.2V285.5C1148.7 297.5 1135.45 304 1120.95 304C1090.45 304 1067.45 281 1067.45 240.75C1067.45 201.25 1090.2 177.25 1120.95 177.25C1135.2 177.25 1148.7 183.5 1158.2 195.75V134.25H1190.2V301ZM1130.7 275.75C1141.45 275.75 1152.95 270 1158.2 262V219.25C1152.95 211.25 1141.45 205.5 1130.7 205.5C1112.7 205.5 1100.2 219.75 1100.2 240.75C1100.2 261.5 1112.7 275.75 1130.7 275.75Z" fill="white"/>
<path d="M104.868 318H87.7075V261.96L65.1475 318H57.7075L35.1475 261.96V318H18.1075V237.96H41.9875L61.4275 286.32L80.8675 237.96H104.868V318ZM168.884 319.44C144.524 319.44 132.764 305.76 132.764 286.08V237.96H150.044V285.48C150.044 296.64 156.524 304.32 168.884 304.32C181.244 304.32 187.604 296.64 187.604 285.48V237.96H205.004V285.96C205.004 305.88 193.244 319.44 168.884 319.44ZM249.812 318H232.772V237.96H249.812V318ZM321.501 318H300.141L269.181 237.96H288.621L310.821 299.52L332.901 237.96H352.341L321.501 318Z" fill="white"/>
<path fill-rule="evenodd" clip-rule="evenodd" d="M184 9.09357L273 143.627L367.667 0.526978L355.093 220H12.9074L0.332825 0.527041L95 143.627L184 9.09357Z" fill="#C21631"/>
</svg>
