<?xml version="1.0" ?><svg viewBox="0 0 64 64" xmlns="http://www.w3.org/2000/svg"><g data-name="Layer 13" id="Layer_13"><path d="M58.48,17.12l-26-14a1,1,0,0,0-.94,0l-26,14A1,1,0,0,0,5,18V46a1,1,0,0,0,.53.88l26,14a1,1,0,0,0,.94,0l26-14A1,1,0,0,0,59,46V18A1,1,0,0,0,58.48,17.12ZM32,5.14,55.9,18l-7,3.77L25.83,8.46ZM8.1,18,15.63,14,38.69,27.26,32,30.86ZM23.76,9.57,46.83,22.88l-6.07,3.27L17.7,12.83ZM42.09,27.7l5.44-2.92v7.46l-2.1-2.08a1,1,0,0,0-1.63.33l-1.71,4.12ZM7,19.67,31,32.6V58.33L7,45.4ZM33,58.33V32.6l7.09-3.82V39.64A1,1,0,0,0,42,40l3.06-7.39,2.74,2.72a1,1,0,0,0,1.71-.71V23.7l7.48-4V45.4Z"/></g></svg>