<svg width="961" height="1521" viewBox="0 0 961 1521" fill="none" xmlns="http://www.w3.org/2000/svg">
<rect width="960" height="1520" transform="matrix(-1 0 0 1 960.01 0)" fill="#4F6A84"/>
<path d="M224.306 345H215.538L195.186 317.16V345H186.098V302.312H195.442L215.218 329.128V302.312H224.306V345ZM261.139 345H253.011V341.8C250.899 344.296 247.251 345.768 243.219 345.768C238.291 345.768 232.467 342.44 232.467 335.528C232.467 328.296 238.291 325.544 243.219 325.544C247.315 325.544 250.963 326.888 253.011 329.32V325.16C253.011 322.024 250.323 319.976 246.227 319.976C242.899 319.976 239.827 321.192 237.203 323.624L234.131 318.184C237.907 314.856 242.771 313.32 247.635 313.32C254.675 313.32 261.139 316.136 261.139 325.032V345ZM246.483 340.264C249.107 340.264 251.667 339.368 253.011 337.576V333.736C251.667 331.944 249.107 331.048 246.483 331.048C243.283 331.048 240.659 332.712 240.659 335.72C240.659 338.6 243.283 340.264 246.483 340.264ZM317.649 345H309.457V325.48C309.457 322.6 308.177 320.552 304.849 320.552C301.969 320.552 299.601 322.472 298.449 324.136V345H290.257V325.48C290.257 322.6 288.977 320.552 285.649 320.552C282.833 320.552 280.465 322.472 279.249 324.2V345H271.121V314.088H279.249V318.12C280.529 316.264 284.625 313.32 289.361 313.32C293.905 313.32 296.785 315.432 297.937 318.952C299.729 316.136 303.825 313.32 308.561 313.32C314.257 313.32 317.649 316.328 317.649 322.664V345ZM342.069 345.768C332.661 345.768 325.557 339.432 325.557 329.512C325.557 320.552 332.149 313.32 341.557 313.32C350.773 313.32 357.045 320.232 357.045 330.344V332.136H334.069C334.581 336.04 337.717 339.304 342.965 339.304C345.589 339.304 349.237 338.152 351.221 336.232L354.805 341.48C351.733 344.296 346.869 345.768 342.069 345.768ZM349.173 326.632C348.981 323.688 346.933 319.784 341.557 319.784C336.501 319.784 334.325 323.56 333.941 326.632H349.173Z" fill="white"/>
<path d="M503.623 766H494.535V723.312H514.503C523.783 723.312 528.839 729.584 528.839 737.072C528.839 744.496 523.719 750.832 514.503 750.832H503.623V766ZM513.287 742.832C516.871 742.832 519.559 740.592 519.559 737.072C519.559 733.488 516.871 731.312 513.287 731.312H503.623V742.832H513.287ZM561.639 766H553.511V762.8C551.399 765.296 547.751 766.768 543.719 766.768C538.791 766.768 532.967 763.44 532.967 756.528C532.967 749.296 538.791 746.544 543.719 746.544C547.815 746.544 551.463 747.888 553.511 750.32V746.16C553.511 743.024 550.823 740.976 546.727 740.976C543.399 740.976 540.327 742.192 537.703 744.624L534.631 739.184C538.407 735.856 543.271 734.32 548.135 734.32C555.175 734.32 561.639 737.136 561.639 746.032V766ZM546.983 761.264C549.607 761.264 552.167 760.368 553.511 758.576V754.736C552.167 752.944 549.607 752.048 546.983 752.048C543.783 752.048 541.159 753.712 541.159 756.72C541.159 759.6 543.783 761.264 546.983 761.264ZM582.757 766.768C577.381 766.768 572.197 764.976 568.933 761.968L572.453 756.272C574.693 758.384 579.301 760.496 583.141 760.496C586.661 760.496 588.325 759.088 588.325 757.168C588.325 752.048 569.957 756.208 569.957 744.048C569.957 738.864 574.501 734.32 582.629 734.32C587.877 734.32 592.037 736.112 595.109 738.544L591.845 744.112C589.989 742.128 586.469 740.528 582.693 740.528C579.749 740.528 577.829 741.872 577.829 743.6C577.829 748.208 596.133 744.368 596.133 756.848C596.133 762.48 591.333 766.768 582.757 766.768ZM615.177 766.768C609.801 766.768 604.617 764.976 601.353 761.968L604.873 756.272C607.113 758.384 611.721 760.496 615.561 760.496C619.081 760.496 620.745 759.088 620.745 757.168C620.745 752.048 602.377 756.208 602.377 744.048C602.377 738.864 606.921 734.32 615.049 734.32C620.297 734.32 624.457 736.112 627.529 738.544L624.265 744.112C622.409 742.128 618.889 740.528 615.113 740.528C612.169 740.528 610.249 741.872 610.249 743.6C610.249 748.208 628.553 744.368 628.553 756.848C628.553 762.48 623.753 766.768 615.177 766.768ZM672.237 766H663.597L657.069 744.944L650.541 766H641.837L632.429 735.088H640.877L646.637 755.888L653.421 735.088H660.653L667.437 755.888L673.197 735.088H681.645L672.237 766ZM701.904 766.768C691.728 766.768 685.584 759.344 685.584 750.512C685.584 741.744 691.728 734.32 701.904 734.32C712.144 734.32 718.288 741.744 718.288 750.512C718.288 759.344 712.144 766.768 701.904 766.768ZM701.904 759.536C706.96 759.536 709.84 755.376 709.84 750.512C709.84 745.712 706.96 741.552 701.904 741.552C696.848 741.552 694.032 745.712 694.032 750.512C694.032 755.376 696.848 759.536 701.904 759.536ZM734.366 766H726.238V735.088H734.366V739.312C736.542 736.56 740.382 734.32 744.222 734.32V742.256C743.646 742.128 742.878 742.064 741.982 742.064C739.294 742.064 735.71 743.6 734.366 745.584V766ZM780.661 766H772.469V762.032C770.037 765.104 766.645 766.768 762.933 766.768C755.125 766.768 749.237 760.88 749.237 750.576C749.237 740.464 755.061 734.32 762.933 734.32C766.581 734.32 770.037 735.92 772.469 739.056V723.312H780.661V766ZM765.429 759.536C768.181 759.536 771.125 758.064 772.469 756.016V745.072C771.125 743.024 768.181 741.552 765.429 741.552C760.821 741.552 757.621 745.2 757.621 750.576C757.621 755.888 760.821 759.536 765.429 759.536Z" fill="white"/>
<path d="M216.757 1121.77C203.957 1121.77 194.037 1112.81 194.037 1099.69C194.037 1086.57 203.957 1077.61 216.757 1077.61C226.165 1077.61 231.605 1082.73 234.613 1088.04L226.805 1091.88C225.013 1088.42 221.173 1085.67 216.757 1085.67C209.013 1085.67 203.381 1091.62 203.381 1099.69C203.381 1107.75 209.013 1113.7 216.757 1113.7C221.173 1113.7 225.013 1111.02 226.805 1107.5L234.613 1111.27C231.541 1116.58 226.165 1121.77 216.757 1121.77ZM256.086 1121.77C245.91 1121.77 239.766 1114.34 239.766 1105.51C239.766 1096.74 245.91 1089.32 256.086 1089.32C266.326 1089.32 272.47 1096.74 272.47 1105.51C272.47 1114.34 266.326 1121.77 256.086 1121.77ZM256.086 1114.54C261.142 1114.54 264.022 1110.38 264.022 1105.51C264.022 1100.71 261.142 1096.55 256.086 1096.55C251.03 1096.55 248.214 1100.71 248.214 1105.51C248.214 1110.38 251.03 1114.54 256.086 1114.54ZM309.412 1121H301.284V1102.31C301.284 1098.02 299.044 1096.55 295.588 1096.55C292.388 1096.55 289.892 1098.34 288.548 1100.2V1121H280.42V1090.09H288.548V1094.12C290.532 1091.75 294.308 1089.32 299.364 1089.32C306.148 1089.32 309.412 1093.16 309.412 1099.18V1121ZM329.387 1121H321.195V1097.19H316.075V1090.09H321.195V1088.42C321.195 1081.7 325.547 1077.67 331.627 1077.67C333.931 1077.67 336.043 1078.18 337.515 1078.95L335.851 1084.84C335.211 1084.39 334.315 1084.07 333.227 1084.07C330.923 1084.07 329.387 1085.61 329.387 1088.42V1090.09H335.659V1097.19H329.387V1121ZM344.363 1086.76C341.739 1086.76 339.499 1084.58 339.499 1081.9C339.499 1079.21 341.739 1077.1 344.363 1077.1C347.051 1077.1 349.227 1079.21 349.227 1081.9C349.227 1084.58 347.051 1086.76 344.363 1086.76ZM348.459 1121H340.331V1090.09H348.459V1121ZM366.576 1121H358.448V1090.09H366.576V1094.31C368.752 1091.56 372.592 1089.32 376.432 1089.32V1097.26C375.856 1097.13 375.088 1097.06 374.192 1097.06C371.504 1097.06 367.92 1098.6 366.576 1100.58V1121ZM429.958 1121H421.766V1101.48C421.766 1098.6 420.486 1096.55 417.158 1096.55C414.278 1096.55 411.91 1098.47 410.758 1100.14V1121H402.566V1101.48C402.566 1098.6 401.286 1096.55 397.958 1096.55C395.142 1096.55 392.774 1098.47 391.558 1100.2V1121H383.43V1090.09H391.558V1094.12C392.838 1092.26 396.934 1089.32 401.67 1089.32C406.214 1089.32 409.094 1091.43 410.246 1094.95C412.038 1092.14 416.134 1089.32 420.87 1089.32C426.566 1089.32 429.958 1092.33 429.958 1098.66V1121Z" fill="white"/>
<g clip-path="url(#clip0_36_41)">
<path d="M892.873 1609.08C1003.33 1608.95 1092.77 1519.29 1092.64 1408.84C1092.51 1298.38 1002.86 1208.95 892.407 1209.08C819.148 1209.17 755.105 1248.63 720.309 1307.53C702.694 1337.34 692.597 1372.12 692.64 1409.33C692.769 1519.79 782.416 1609.22 892.873 1609.08Z" stroke="#DB5472" stroke-width="48"/>
</g>
<circle cx="10" cy="10" r="10" transform="matrix(-1 0 0 1 198 1330)" fill="#DB5472"/>
<circle cx="10" cy="10" r="10" transform="matrix(-1 0 0 1 198 1410)" fill="#DB5472"/>
<circle cx="10" cy="10" r="10" transform="matrix(-1 0 0 1 198 1370)" fill="#DB5472"/>
<circle cx="10" cy="10" r="10" transform="matrix(-1 0 0 1 198 1450)" fill="#DB5472"/>
<circle cx="10" cy="10" r="10" transform="matrix(-1 0 0 1 158 1330)" fill="#DB5472"/>
<circle cx="10" cy="10" r="10" transform="matrix(-1 0 0 1 158 1410)" fill="#DB5472"/>
<circle cx="10" cy="10" r="10" transform="matrix(-1 0 0 1 158 1370)" fill="#DB5472"/>
<circle cx="10" cy="10" r="10" transform="matrix(-1 0 0 1 158 1450)" fill="#DB5472"/>
<circle cx="10" cy="10" r="10" transform="matrix(-1 0 0 1 118 1330)" fill="#DB5472"/>
<circle cx="10" cy="10" r="10" transform="matrix(-1 0 0 1 118 1410)" fill="#DB5472"/>
<circle cx="10" cy="10" r="10" transform="matrix(-1 0 0 1 118 1370)" fill="#DB5472"/>
<circle cx="10" cy="10" r="10" transform="matrix(-1 0 0 1 118 1450)" fill="#DB5472"/>
<circle cx="10" cy="10" r="10" transform="matrix(-1 0 0 1 78 1330)" fill="#DB5472"/>
<circle cx="10" cy="10" r="10" transform="matrix(-1 0 0 1 78 1410)" fill="#DB5472"/>
<circle cx="10" cy="10" r="10" transform="matrix(-1 0 0 1 78 1370)" fill="#DB5472"/>
<circle cx="10" cy="10" r="10" transform="matrix(-1 0 0 1 78 1450)" fill="#DB5472"/>
<rect width="560" height="20" transform="matrix(-1 0 0 1 960 811)" fill="#DB5472"/>
<rect width="560" height="20" transform="matrix(-1 0 0 1 560.379 1175)" fill="#DB5472"/>
<rect width="560" height="20" transform="matrix(-1 0 0 1 560 406)" fill="#DB5472"/>
<path d="M43.6784 267.309L51.3878 275.018L62.3972 264.009L54.6878 256.3C51.6472 253.259 46.7159 253.259 43.6784 256.3C40.6409 259.34 40.6378 264.268 43.6784 267.309ZM48.0847 276.115C47.4753 275.509 46.4878 275.509 45.8816 276.115C45.2722 276.725 45.2722 277.712 45.8816 278.318L74.5066 306.947C75.1159 307.553 76.1034 307.553 76.7097 306.947C77.3159 306.34 77.3159 305.353 76.7097 304.747L57.9909 286.028L73.4097 270.609L66.8034 264.006L51.3878 279.422L48.0847 276.115ZM73.4066 275.018L62.3972 286.028L106.441 330.072L117.45 319.062L73.4066 275.018ZM127.36 339.981L119.653 321.265L108.644 332.275L127.36 339.981Z" fill="#DB5472"/>
<path d="M923.701 688.309L915.991 696.018L904.982 685.009L912.691 677.3C915.732 674.259 920.663 674.259 923.701 677.3C926.738 680.34 926.741 685.268 923.701 688.309ZM919.295 697.115C919.904 696.509 920.891 696.509 921.498 697.115C922.107 697.725 922.107 698.712 921.498 699.318L892.873 727.947C892.263 728.553 891.276 728.553 890.67 727.947C890.063 727.34 890.063 726.353 890.67 725.747L909.388 707.028L893.97 691.609L900.576 685.006L915.991 700.422L919.295 697.115ZM893.973 696.018L904.982 707.028L860.938 751.072L849.929 740.062L893.973 696.018ZM840.02 760.981L847.726 742.265L858.735 753.275L840.02 760.981Z" fill="#DB5472"/>
<path d="M84.3795 1078.56C79.1943 1078.56 75.1203 1082.63 75.1203 1087.81C75.1203 1090.78 76.6018 1093.37 78.824 1095.22V1102.63C78.824 1105.59 81.4167 1108.19 84.3797 1108.19C87.3426 1108.19 89.9353 1105.59 89.9353 1102.63V1095.22C92.1575 1093.37 93.639 1090.78 93.639 1087.81C93.6386 1082.63 89.5646 1078.56 84.3795 1078.56ZM86.2312 1093V1102.63C86.2312 1103.74 85.4905 1104.48 84.3795 1104.48C83.2684 1104.48 82.5277 1103.74 82.5277 1102.63V1093C80.3055 1092.26 78.824 1090.04 78.824 1087.82C78.824 1084.85 81.4167 1082.26 84.3797 1082.26C87.3426 1082.26 89.9353 1084.85 89.9353 1087.82C89.9349 1090.41 88.4534 1092.26 86.2312 1093Z" fill="#DB5472"/>
<path d="M112.157 1063.74V1050.78C112.157 1035.59 99.5646 1023 84.3795 1023C69.1942 1023 56.6016 1035.59 56.6016 1050.78V1063.74C50.3052 1063.74 45.4905 1068.56 45.4905 1074.85V1111.89C45.4905 1118.19 50.3052 1123 56.6016 1123H112.157C118.454 1123 123.268 1118.19 123.268 1111.89V1074.85C123.268 1068.93 118.454 1063.74 112.157 1063.74ZM60.3053 1050.78C60.3053 1037.44 71.0459 1026.7 84.3793 1026.7C97.7126 1026.7 108.453 1037.44 108.453 1050.78V1063.74H104.75V1050.78C104.75 1039.67 95.4904 1030.41 84.3791 1030.41C73.2678 1030.41 64.009 1039.67 64.009 1050.78V1063.74H60.3053V1050.78ZM101.046 1050.78V1063.74H67.7127V1050.78C67.7127 1041.52 75.1201 1034.11 84.3793 1034.11C93.6384 1034.11 101.046 1041.52 101.046 1050.78ZM119.565 1111.89C119.565 1115.96 116.231 1119.3 112.157 1119.3H56.6016C52.5274 1119.3 49.1942 1115.96 49.1942 1111.89V1074.85C49.1942 1070.78 52.5274 1067.44 56.6016 1067.44H112.157C116.231 1067.44 119.565 1070.78 119.565 1074.85V1111.89Z" fill="#DB5472"/>
<path d="M316.383 613.318L142.527 501.32L134.955 711.855L316.383 613.318Z" stroke="#DB5472" stroke-width="28"/>
<g clip-path="url(#clip1_36_41)">
<path d="M814.512 340.36L615.646 250.943L601.996 281.301L800.862 370.717L814.512 340.36Z" fill="white"/>
<path d="M673.782 263.748L663.745 259.235L678.456 226.519L650.55 253.302L646.198 251.345L647.713 212.696L633.003 245.412L623.036 240.931L644.046 194.203L658.014 200.483L656.69 233.829L680.755 210.708L694.793 217.02L673.782 263.748ZM710.847 281.424C696.599 275.018 693.312 263.939 698.478 252.449L711.109 224.357L721.216 228.901L708.742 256.644C705.813 263.159 707.587 269.347 714.816 272.597C722.046 275.848 727.781 273.037 730.711 266.521L743.185 238.779L753.362 243.355L740.762 271.378C735.533 283.007 725.095 287.831 710.847 281.424ZM758.56 301.867L748.593 297.385L769.604 250.658L779.57 255.139L758.56 301.867ZM800.491 320.72L787.997 315.103L790.899 260.233L802.27 265.346L799.095 307.123L828.169 276.991L839.539 282.103L800.491 320.72Z" fill="white"/>
<path fill-rule="evenodd" clip-rule="evenodd" d="M801.154 104.218L817.895 206.165L910.829 147.52L845.864 272.342L645.719 182.35L695.976 50.9143L713.783 159.353L801.154 104.218Z" fill="white"/>
</g>
<defs>
<clipPath id="clip0_36_41">
<rect width="334.693" height="291.963" fill="white" transform="matrix(0.00116535 0.999999 0.999999 -0.00122764 668.379 1185.36)"/>
</clipPath>
<clipPath id="clip1_36_41">
<rect width="236" height="249" fill="white" transform="translate(695.919 50.5192) rotate(24.2103)"/>
</clipPath>
</defs>
</svg>
