<svg width="1120" height="200" viewBox="0 0 1120 200" fill="none" xmlns="http://www.w3.org/2000/svg">
<path fill-rule="evenodd" clip-rule="evenodd" d="M648.739 200L823.519 0H0V200H284.46L459.122 1.89724e-05L479.037 2.60608e-05L304.375 200H648.739ZM668.66 200L843.44 0H1120V200L668.66 200Z" fill="#5142FC"/>
<path d="M86.9375 168.75V140.625C86.9375 137.813 88.5 135.625 91.3125 134.687L126 122.812V109.375" stroke="#7468FD" stroke-width="2" stroke-miterlimit="10"/>
<path d="M195.062 168.75V140.625C195.062 137.813 193.5 135.625 190.688 134.687L156 122.812V109.375" stroke="#7468FD" stroke-width="2" stroke-miterlimit="10"/>
<path d="M167.25 65.625C167.25 51.25 155.375 39.375 141 39.375C126.625 39.375 114.75 51.25 114.75 65.625L117.25 97.1875C117.562 101.562 120.062 105.312 123.812 107.187L136.625 115.625H145.062L158.187 107.187C161 105.625 163.188 103.125 164.125 100C164.438 99.0625 164.437 98.125 164.75 97.1875L167.25 65.625Z" stroke="#7468FD" stroke-width="2" stroke-miterlimit="10"/>
<path d="M135.375 146.563L132.25 136.563L140.687 130.312L149.125 136.563L146 146.563H135.375Z" stroke="#7468FD" stroke-width="2" stroke-miterlimit="10"/>
<path d="M135.375 146.562L132.25 168.75" stroke="#7468FD" stroke-width="2" stroke-miterlimit="10"/>
<path d="M145.375 146.562L148.812 168.75" stroke="#7468FD" stroke-width="2" stroke-miterlimit="10"/>
<path d="M125.688 123.125L135.375 134.062" stroke="#7468FD" stroke-width="2" stroke-miterlimit="10"/>
<path d="M156.937 123.125L146.938 134.062" stroke="#7468FD" stroke-width="2" stroke-miterlimit="10"/>
<path d="M107.25 68.75V65C107.25 46.5625 122.25 31.25 140.687 31.25C159.125 31.25 174.125 46.25 174.125 64.6875V68.75" stroke="#7468FD" stroke-width="2" stroke-miterlimit="10"/>
<path d="M116.625 88.125C110.375 88.75 105.063 84.0625 104.438 78.125C103.813 71.875 108.5 66.5625 114.438 65.9375L116.625 88.125Z" stroke="#7468FD" stroke-width="2" stroke-miterlimit="10"/>
<path d="M165.688 88.125C171.938 88.75 177.25 84.0625 177.875 78.125C178.5 71.875 173.812 66.5625 167.875 65.9375L165.688 88.125Z" stroke="#7468FD" stroke-width="2" stroke-miterlimit="10"/>
<path d="M174.438 85V99.375L171.938 103.437H142.25" stroke="#7468FD" stroke-width="2" stroke-miterlimit="10"/>
<path d="M1029.03 172.312H1014.97C1013.83 172.312 1012.85 171.483 1012.66 170.353L1010.43 157.003C1006.53 156.183 1002.71 154.941 999.036 153.291L989.38 162.792C988.559 163.598 987.28 163.692 986.356 163.017L974.984 154.753C974.061 154.078 973.752 152.836 974.267 151.809L980.314 139.702C977.586 136.697 975.209 133.448 973.222 130.008L959.881 132.014C958.723 132.197 957.655 131.517 957.303 130.42L952.953 117.042C952.602 115.955 953.084 114.769 954.102 114.239L966.116 107.991C965.867 105.802 965.75 103.861 965.75 102C965.75 100.139 965.867 98.2031 966.12 96.0094L954.106 89.7656C953.089 89.2406 952.606 88.0547 952.958 86.9625L957.303 73.5844C957.655 72.4969 958.714 71.8125 959.881 71.9906L973.231 73.9922C973.972 72.7078 974.773 71.4422 975.617 70.2234C976.344 69.15 977.802 68.8922 978.87 69.6328C979.934 70.3688 980.202 71.8266 979.466 72.8906C978.406 74.4187 977.427 76.0266 976.545 77.6672C976.077 78.5344 975.13 79.0266 974.131 78.8719L961.147 76.9219L958.03 86.5219L969.73 92.6016C970.611 93.0562 971.103 94.0172 970.972 94.9969C970.606 97.6781 970.438 99.9047 970.438 102C970.438 104.095 970.606 106.322 970.967 109.003C971.098 109.983 970.606 110.944 969.725 111.398L958.025 117.483L961.147 127.083L974.131 125.133C975.097 124.973 976.077 125.466 976.545 126.342C978.739 130.42 981.523 134.236 984.828 137.672C985.512 138.384 985.681 139.458 985.236 140.344L979.344 152.128L987.509 158.062L996.908 148.809C997.616 148.116 998.68 147.947 999.575 148.369C1003.81 150.427 1008.29 151.884 1012.89 152.705C1013.86 152.878 1014.62 153.647 1014.79 154.627L1016.96 167.625H1027.04L1029.21 154.631C1029.37 153.652 1030.13 152.883 1031.11 152.709C1035.7 151.889 1040.18 150.436 1044.43 148.373C1045.31 147.947 1046.39 148.116 1047.09 148.814L1056.49 158.062L1064.65 152.128L1058.77 140.344C1058.32 139.458 1058.49 138.389 1059.18 137.672C1062.47 134.241 1065.26 130.425 1067.45 126.342C1067.92 125.47 1068.86 124.983 1069.87 125.133L1082.86 127.078L1085.98 117.478L1074.27 111.398C1073.39 110.944 1072.9 109.983 1073.03 109.003C1073.39 106.322 1073.56 104.095 1073.56 102C1073.56 99.9047 1073.39 97.6781 1073.03 94.9969C1072.9 94.0172 1073.39 93.0562 1074.27 92.6016L1085.98 86.5172L1082.85 76.9172L1069.87 78.8672C1068.88 79.0031 1067.92 78.5297 1067.45 77.6578C1065.26 73.5797 1062.48 69.7641 1059.17 66.3281C1058.49 65.6156 1058.32 64.5422 1058.76 63.6563L1064.66 51.8719L1056.49 45.9375L1047.09 55.1906C1046.38 55.8844 1045.32 56.0625 1044.42 55.6312C1040.18 53.5734 1035.71 52.1156 1031.11 51.2953C1030.13 51.1219 1029.37 50.3531 1029.21 49.3734L1027.04 36.375H1016.96L1014.79 49.3687C1014.63 50.3484 1013.87 51.1172 1012.89 51.2906C1008.3 52.1109 1003.82 53.5641 999.57 55.6266C998.689 56.0531 997.616 55.8844 996.908 55.1859L987.509 45.9422L979.344 51.8766L985.227 63.6563C985.803 64.8141 985.334 66.225 984.177 66.8016C983.019 67.3828 981.617 66.9094 981.036 65.7562L974.262 52.1953C973.752 51.1688 974.056 49.9266 974.984 49.2516L986.361 40.9828C987.28 40.3031 988.564 40.4062 989.384 41.2078L999.041 50.7047C1002.71 49.0547 1006.54 47.8125 1010.44 46.9922L1012.67 33.6422C1012.85 32.5172 1013.83 31.6875 1014.97 31.6875H1029.03C1030.17 31.6875 1031.15 32.5172 1031.34 33.6469L1033.57 46.9969C1037.47 47.8172 1041.29 49.0594 1044.96 50.7094L1054.62 41.2078C1055.44 40.4062 1056.72 40.3078 1057.64 40.9828L1069.02 49.2516C1069.95 49.9266 1070.26 51.1688 1069.74 52.1953L1063.7 64.3031C1066.42 67.3078 1068.8 70.5562 1070.79 73.9969L1084.13 71.9906C1085.29 71.8125 1086.35 72.4922 1086.71 73.5844L1091.06 86.9625C1091.41 88.05 1090.92 89.2359 1089.91 89.7656L1077.89 96.0141C1078.13 98.1984 1078.25 100.139 1078.25 102C1078.25 103.861 1078.13 105.797 1077.88 107.991L1089.89 114.234C1090.91 114.759 1091.39 115.945 1091.04 117.038L1086.7 130.416C1086.35 131.508 1085.28 132.202 1084.12 132.009L1070.77 130.008C1068.78 133.448 1066.41 136.702 1063.69 139.702L1069.73 151.805C1070.24 152.831 1069.93 154.073 1069.01 154.748L1057.63 163.017C1056.72 163.692 1055.43 163.594 1054.61 162.792L1044.95 153.295C1041.28 154.945 1037.46 156.188 1033.55 157.008L1031.33 170.358C1031.15 171.483 1030.17 172.312 1029.03 172.312ZM1022 120.75C1011.66 120.75 1003.25 112.341 1003.25 102C1003.25 91.6594 1011.66 83.25 1022 83.25C1032.34 83.25 1040.75 91.6594 1040.75 102C1040.75 112.341 1032.34 120.75 1022 120.75ZM1022 87.9375C1014.25 87.9375 1007.94 94.2469 1007.94 102C1007.94 109.753 1014.25 116.062 1022 116.062C1029.75 116.062 1036.06 109.753 1036.06 102C1036.06 94.2469 1029.75 87.9375 1022 87.9375Z" fill="#7468FD"/>
<path d="M1022 139.5C1001.32 139.5 984.5 122.677 984.5 102C984.5 81.3234 1001.32 64.5 1022 64.5C1042.68 64.5 1059.5 81.3234 1059.5 102C1059.5 110.348 1056.81 118.256 1051.73 124.866C1050.95 125.892 1049.47 126.08 1048.45 125.297C1047.42 124.509 1047.23 123.037 1048.02 122.011C1052.46 116.222 1054.81 109.308 1054.81 102C1054.81 83.9109 1040.09 69.1875 1022 69.1875C1003.91 69.1875 989.188 83.9109 989.188 102C989.188 120.089 1003.91 134.812 1022 134.812C1025.88 134.812 1029.7 134.133 1033.34 132.797C1034.56 132.361 1035.91 132.975 1036.35 134.194C1036.8 135.408 1036.17 136.753 1034.96 137.203C1030.79 138.727 1026.43 139.5 1022 139.5Z" fill="#7468FD"/>
<path d="M1043.09 132.469C1044.39 132.469 1045.44 131.419 1045.44 130.125C1045.44 128.831 1044.39 127.781 1043.09 127.781C1041.8 127.781 1040.75 128.831 1040.75 130.125C1040.75 131.419 1041.8 132.469 1043.09 132.469Z" fill="#7468FD"/>
<path d="M213.982 38.36C212.248 38.36 210.648 38.1467 209.182 37.72C207.742 37.2933 206.328 36.7067 204.942 35.96C205.155 34.8933 205.288 33.8133 205.342 32.72C205.395 31.6267 205.422 30.6267 205.422 29.72C205.955 29.56 206.542 29.4533 207.182 29.4C207.822 29.3467 208.435 29.32 209.022 29.32C209.128 30.84 209.342 32.08 209.662 33.04C210.008 33.9733 210.542 34.6533 211.262 35.08C211.982 35.5067 212.942 35.72 214.142 35.72C215.715 35.72 216.848 35.3867 217.542 34.72C218.235 34.0267 218.582 33.24 218.582 32.36C218.582 31.4267 218.262 30.6533 217.622 30.04C216.982 29.4 216.168 28.84 215.182 28.36C214.195 27.88 213.142 27.3867 212.022 26.88C210.928 26.3733 209.875 25.76 208.862 25.04C207.875 24.32 207.062 23.4267 206.422 22.36C205.808 21.2933 205.502 19.96 205.502 18.36C205.502 16.6 205.888 15.1467 206.662 14C207.462 12.8533 208.528 12 209.862 11.44C211.222 10.88 212.742 10.6 214.422 10.6C215.408 10.6 216.382 10.68 217.342 10.84C218.302 11 219.182 11.2133 219.982 11.48C220.782 11.72 221.435 12.0133 221.942 12.36C221.942 13.32 221.955 14.3467 221.982 15.44C222.008 16.5067 222.075 17.3733 222.182 18.04C221.755 18.28 221.195 18.4533 220.502 18.56C219.835 18.64 219.235 18.68 218.702 18.68C218.462 17.1867 218.128 16.04 217.702 15.24C217.302 14.44 216.795 13.8933 216.182 13.6C215.595 13.28 214.902 13.12 214.102 13.12C213.008 13.12 212.115 13.3867 211.422 13.92C210.728 14.4267 210.382 15.1867 210.382 16.2C210.382 17.1867 210.702 18.0133 211.342 18.68C212.008 19.3467 212.848 19.9333 213.862 20.44C214.902 20.9467 215.995 21.4667 217.142 22C218.315 22.5333 219.408 23.16 220.422 23.88C221.462 24.5733 222.315 25.44 222.982 26.48C223.648 27.52 223.982 28.8133 223.982 30.36C223.982 31.88 223.608 33.2533 222.862 34.48C222.115 35.68 221.008 36.6267 219.542 37.32C218.075 38.0133 216.222 38.36 213.982 38.36ZM235.766 38.24C233.873 38.24 232.393 37.7067 231.326 36.64C230.26 35.5467 229.726 33.6267 229.726 30.88V26.16C229.726 25.0133 229.593 24.2133 229.326 23.76C229.06 23.28 228.34 23 227.166 22.92C227.166 22.52 227.193 22.1333 227.246 21.76C227.326 21.36 227.446 20.9867 227.606 20.64C229.02 20.64 230.326 20.5067 231.526 20.24C232.753 19.9467 233.673 19.64 234.286 19.32C234.66 19.4533 234.94 19.6933 235.126 20.04C235.34 20.36 235.446 20.84 235.446 21.48V29.92C235.446 31.7067 235.633 32.9867 236.006 33.76C236.406 34.5333 237.046 34.92 237.926 34.92C238.993 34.92 239.913 34.4 240.686 33.36C241.46 32.2933 241.846 30.68 241.846 28.52V25.96C241.846 24.8133 241.673 24.0133 241.326 23.56C241.006 23.08 240.22 22.8 238.966 22.72C238.966 22.32 238.98 21.9333 239.006 21.56C239.06 21.16 239.18 20.7867 239.366 20.44C240.886 20.44 242.286 20.3333 243.566 20.12C244.846 19.88 245.793 19.6133 246.406 19.32C246.78 19.4533 247.06 19.6933 247.246 20.04C247.46 20.36 247.566 20.84 247.566 21.48V32.64L242.606 34.08C242.446 34.56 242.233 34.9867 241.966 35.36C241.726 35.7333 241.46 36.0667 241.166 36.36C240.553 36.92 239.806 37.3733 238.926 37.72C238.046 38.0667 236.993 38.24 235.766 38.24ZM243.606 38.36C243.18 38.1733 242.86 37.92 242.646 37.6C242.46 37.28 242.366 36.7733 242.366 36.08C242.366 35.6533 242.406 35.16 242.486 34.6C242.566 34.0133 242.686 33.4133 242.846 32.8L247.566 31.32C247.566 32.1467 247.62 32.8 247.726 33.28C247.833 33.7333 248.046 34.0533 248.366 34.24C248.713 34.4267 249.233 34.52 249.926 34.52C249.98 34.9467 249.98 35.3867 249.926 35.84C249.873 36.2667 249.753 36.6667 249.566 37.04C248.606 37.0667 247.593 37.2 246.526 37.44C245.46 37.6533 244.486 37.96 243.606 38.36ZM253.54 47.8C253.54 47.24 253.554 46.76 253.58 46.36C253.634 45.9867 253.7 45.6533 253.78 45.36C254.5 45.3067 255.06 45.1733 255.46 44.96C255.86 44.7467 256.127 44.3467 256.26 43.76C256.42 43.2 256.5 42.4 256.5 41.36V26.16C256.5 25.3867 256.434 24.7867 256.3 24.36C256.194 23.9067 255.927 23.5733 255.5 23.36C255.1 23.12 254.46 22.9733 253.58 22.92C253.58 22.52 253.607 22.1333 253.66 21.76C253.74 21.36 253.874 20.9867 254.06 20.64C255.474 20.64 256.834 20.5067 258.14 20.24C259.474 19.9467 260.447 19.64 261.06 19.32C261.434 19.4533 261.714 19.6933 261.9 20.04C262.114 20.36 262.22 20.84 262.22 21.48C262.22 21.88 262.14 22.32 261.98 22.8C261.847 23.2533 261.647 23.8267 261.38 24.52L262.22 25.36V40.76C262.22 41.9067 262.34 42.8 262.58 43.44C262.847 44.08 263.26 44.5333 263.82 44.8C264.407 45.0933 265.194 45.28 266.18 45.36C266.314 45.68 266.394 46.0533 266.42 46.48C266.447 46.9067 266.46 47.3467 266.46 47.8C266.007 47.7733 265.434 47.7467 264.74 47.72C264.074 47.72 263.354 47.7067 262.58 47.68C261.807 47.68 261.047 47.68 260.3 47.68C259.1 47.68 257.86 47.68 256.58 47.68C255.3 47.7067 254.287 47.7467 253.54 47.8ZM265.14 38.36C264.527 38.36 263.967 38.3067 263.46 38.2C262.954 38.12 262.394 38 261.78 37.84V34.12C262.234 34.7067 262.727 35.1733 263.26 35.52C263.794 35.84 264.447 36 265.22 36C265.7 36 266.22 35.9067 266.78 35.72C267.367 35.5067 267.914 35.1467 268.42 34.64C268.954 34.1067 269.38 33.36 269.7 32.4C270.02 31.4133 270.18 30.16 270.18 28.64C270.18 27.52 270.034 26.5067 269.74 25.6C269.474 24.6667 269.06 23.9333 268.5 23.4C267.94 22.84 267.234 22.56 266.38 22.56C265.714 22.56 265.06 22.7867 264.42 23.24C263.78 23.6667 263.247 24.3867 262.82 25.4C262.42 26.3867 262.22 27.7067 262.22 29.36L260.66 25.28C261.087 24.24 261.487 23.44 261.86 22.88C262.234 22.2933 262.58 21.8533 262.9 21.56C263.194 21.2133 263.594 20.88 264.1 20.56C264.634 20.2133 265.247 19.92 265.94 19.68C266.634 19.44 267.38 19.32 268.18 19.32C269.754 19.32 271.114 19.6133 272.26 20.2C273.434 20.7867 274.354 21.6933 275.02 22.92C275.714 24.12 276.06 25.68 276.06 27.6C276.06 29.7067 275.594 31.5733 274.66 33.2C273.754 34.8267 272.487 36.0933 270.86 37C269.234 37.9067 267.327 38.36 265.14 38.36ZM279.545 47.8C279.545 47.24 279.558 46.76 279.585 46.36C279.638 45.9867 279.705 45.6533 279.785 45.36C280.505 45.3067 281.065 45.1733 281.465 44.96C281.865 44.7467 282.132 44.3467 282.265 43.76C282.425 43.2 282.505 42.4 282.505 41.36V26.16C282.505 25.3867 282.438 24.7867 282.305 24.36C282.198 23.9067 281.932 23.5733 281.505 23.36C281.105 23.12 280.465 22.9733 279.585 22.92C279.585 22.52 279.612 22.1333 279.665 21.76C279.745 21.36 279.878 20.9867 280.065 20.64C281.478 20.64 282.838 20.5067 284.145 20.24C285.478 19.9467 286.452 19.64 287.065 19.32C287.438 19.4533 287.718 19.6933 287.905 20.04C288.118 20.36 288.225 20.84 288.225 21.48C288.225 21.88 288.145 22.32 287.985 22.8C287.852 23.2533 287.652 23.8267 287.385 24.52L288.225 25.36V40.76C288.225 41.9067 288.345 42.8 288.585 43.44C288.852 44.08 289.265 44.5333 289.825 44.8C290.412 45.0933 291.198 45.28 292.185 45.36C292.318 45.68 292.398 46.0533 292.425 46.48C292.452 46.9067 292.465 47.3467 292.465 47.8C292.012 47.7733 291.438 47.7467 290.745 47.72C290.078 47.72 289.358 47.7067 288.585 47.68C287.812 47.68 287.052 47.68 286.305 47.68C285.105 47.68 283.865 47.68 282.585 47.68C281.305 47.7067 280.292 47.7467 279.545 47.8ZM291.145 38.36C290.532 38.36 289.972 38.3067 289.465 38.2C288.958 38.12 288.398 38 287.785 37.84V34.12C288.238 34.7067 288.732 35.1733 289.265 35.52C289.798 35.84 290.452 36 291.225 36C291.705 36 292.225 35.9067 292.785 35.72C293.372 35.5067 293.918 35.1467 294.425 34.64C294.958 34.1067 295.385 33.36 295.705 32.4C296.025 31.4133 296.185 30.16 296.185 28.64C296.185 27.52 296.038 26.5067 295.745 25.6C295.478 24.6667 295.065 23.9333 294.505 23.4C293.945 22.84 293.238 22.56 292.385 22.56C291.718 22.56 291.065 22.7867 290.425 23.24C289.785 23.6667 289.252 24.3867 288.825 25.4C288.425 26.3867 288.225 27.7067 288.225 29.36L286.665 25.28C287.092 24.24 287.492 23.44 287.865 22.88C288.238 22.2933 288.585 21.8533 288.905 21.56C289.198 21.2133 289.598 20.88 290.105 20.56C290.638 20.2133 291.252 19.92 291.945 19.68C292.638 19.44 293.385 19.32 294.185 19.32C295.758 19.32 297.118 19.6133 298.265 20.2C299.438 20.7867 300.358 21.6933 301.025 22.92C301.718 24.12 302.065 25.68 302.065 27.6C302.065 29.7067 301.598 31.5733 300.665 33.2C299.758 34.8267 298.492 36.0933 296.865 37C295.238 37.9067 293.332 38.36 291.145 38.36ZM315.94 38.36C313.833 38.36 312.033 37.9867 310.54 37.24C309.046 36.4667 307.913 35.3867 307.14 34C306.393 32.5867 306.02 30.9333 306.02 29.04C306.02 26.9867 306.46 25.24 307.34 23.8C308.22 22.3333 309.42 21.2267 310.94 20.48C312.486 19.7067 314.206 19.32 316.1 19.32C318.286 19.32 320.113 19.72 321.58 20.52C323.073 21.32 324.193 22.4267 324.94 23.84C325.713 25.2267 326.1 26.84 326.1 28.68C326.1 30.6267 325.686 32.3333 324.86 33.8C324.033 35.24 322.86 36.36 321.34 37.16C319.82 37.96 318.02 38.36 315.94 38.36ZM316.46 35.84C317.713 35.84 318.646 35.2533 319.26 34.08C319.9 32.88 320.22 31.3867 320.22 29.6C320.22 27.8933 320.006 26.4533 319.58 25.28C319.153 24.1067 318.593 23.2267 317.9 22.64C317.206 22.0533 316.446 21.76 315.62 21.76C314.366 21.76 313.433 22.3467 312.82 23.52C312.206 24.6667 311.9 26.1067 311.9 27.84C311.9 29.3867 312.073 30.7733 312.42 32C312.793 33.2 313.326 34.1467 314.02 34.84C314.713 35.5067 315.526 35.84 316.46 35.84ZM338.555 31.08C338.555 32.2267 338.675 33.12 338.915 33.76C339.182 34.4 339.595 34.8667 340.155 35.16C340.742 35.4267 341.528 35.6 342.515 35.68C342.648 36 342.728 36.3733 342.755 36.8C342.782 37.2267 342.795 37.6667 342.795 38.12C342.342 38.0933 341.768 38.0667 341.075 38.04C340.408 38.04 339.688 38.0267 338.915 38C338.142 38 337.382 38 336.635 38C335.435 38 334.195 38 332.915 38C331.635 38.0267 330.622 38.0667 329.875 38.12C329.875 37.56 329.888 37.0933 329.915 36.72C329.968 36.32 330.035 35.9733 330.115 35.68C330.835 35.6267 331.395 35.4933 331.795 35.28C332.195 35.0667 332.462 34.68 332.595 34.12C332.755 33.5333 332.835 32.72 332.835 31.68V28.92H338.555V31.08ZM338.555 26.2V29.64H332.835V25.28L338.555 21.48C338.555 22.1467 338.475 22.8267 338.315 23.52C338.182 24.1867 338.008 24.9867 337.795 25.92L338.555 26.2ZM337.675 26.08C337.888 25.4667 338.102 24.8533 338.315 24.24C338.528 23.6267 338.728 23.16 338.915 22.84C339.502 21.9067 340.222 21.1333 341.075 20.52C341.928 19.9067 342.888 19.6 343.955 19.6C344.995 19.6 345.942 19.92 346.795 20.56C346.715 21.0933 346.635 21.7067 346.555 22.4C346.502 23.0667 346.462 23.7467 346.435 24.44C346.435 25.1333 346.448 25.7733 346.475 26.36C346.075 26.52 345.542 26.64 344.875 26.72C344.235 26.8 343.662 26.84 343.155 26.84C343.128 25.7733 342.968 25.04 342.675 24.64C342.382 24.2133 341.968 24 341.435 24C341.035 24 340.608 24.24 340.155 24.72C339.702 25.1733 339.315 25.7867 338.995 26.56C338.702 27.3067 338.555 28.12 338.555 29L337.675 26.08ZM332.835 29.64V26.16C332.835 25.3867 332.768 24.7867 332.635 24.36C332.528 23.9067 332.262 23.5733 331.835 23.36C331.435 23.12 330.795 22.9733 329.915 22.92C329.915 22.52 329.942 22.1333 329.995 21.76C330.075 21.36 330.208 20.9867 330.395 20.64C331.808 20.64 333.168 20.5067 334.475 20.24C335.808 19.9467 336.782 19.64 337.395 19.32C337.768 19.4533 338.048 19.6933 338.235 20.04C338.448 20.36 338.555 20.84 338.555 21.48L332.835 29.64ZM357.699 38.36C355.859 38.36 354.473 37.88 353.539 36.92C352.606 35.96 352.139 34.3467 352.139 32.08V23.08C351.713 22.92 351.273 22.8 350.819 22.72C350.366 22.64 349.819 22.5867 349.179 22.56C349.179 22.08 349.206 21.6533 349.259 21.28C349.339 20.9067 349.473 20.5067 349.659 20.08H352.139V15.16C353.019 15.0267 353.886 14.7867 354.739 14.44C355.593 14.0667 356.299 13.6533 356.859 13.2C357.233 13.36 357.486 13.5867 357.619 13.88C357.753 14.1733 357.819 14.76 357.819 15.64V20.08H362.739C362.739 20.56 362.713 21.0133 362.659 21.44C362.606 21.84 362.513 22.2267 362.379 22.6C361.473 22.6 360.646 22.6533 359.899 22.76C359.153 22.8667 358.459 23.0133 357.819 23.2V31.4C357.819 32.4667 357.886 33.3067 358.019 33.92C358.179 34.5067 358.419 34.92 358.739 35.16C359.059 35.4 359.446 35.52 359.899 35.52C360.353 35.52 360.779 35.4667 361.179 35.36C361.606 35.2267 362.006 35.0533 362.379 34.84C362.753 35.32 362.953 35.9733 362.979 36.8C362.446 37.2533 361.686 37.6267 360.699 37.92C359.739 38.2133 358.739 38.36 357.699 38.36Z" fill="white"/>
<path d="M624.444 57.8889H595.556V60.1111H624.444V57.8889Z" fill="#7468FD"/>
<path d="M611.111 24.5557H595.556V26.7779H611.111V24.5557Z" fill="#7468FD"/>
<path d="M624.444 51.2222H595.556V53.4444H624.444V51.2222Z" fill="#7468FD"/>
<path d="M611.111 17.8889H595.556V20.1111H611.111V17.8889Z" fill="#7468FD"/>
<path d="M617.778 9H616.667H593.333C590.889 9 588.889 10.9999 588.889 13.4444V64.5556C588.889 66.9999 590.889 69 593.333 69H626.667C629.111 69 631.111 66.9999 631.111 64.5556V25.6667V24.5557L617.778 9ZM617.778 12.3334L628.222 24.5557H620C618.889 24.5557 617.778 23.4446 617.778 22.3334V12.3334ZM628.889 64.5556C628.889 65.6666 628 66.7778 626.667 66.7778H593.333C592.222 66.7778 591.111 65.8889 591.111 64.5556V13.4444C591.111 12.3334 592 11.2222 593.333 11.2222H615.556V22.3333C615.556 24.7778 617.556 26.7778 620 26.7778H628.889V64.5556Z" fill="#7468FD"/>
<path d="M624.444 44.5557H595.556V46.7779H624.444V44.5557Z" fill="#7468FD"/>
<path d="M624.444 31.2222H595.556V33.4444H624.444V31.2222Z" fill="#7468FD"/>
<path d="M624.444 37.8889H595.556V40.1111H624.444V37.8889Z" fill="#7468FD"/>
<path d="M561.24 79.3279H561.108C559.174 79.3279 557.601 80.9014 557.601 82.8353V115.998C557.601 118.115 556.834 120.224 555.442 121.937C554.316 123.323 553.695 125.071 553.695 126.86C553.695 131.168 557.2 134.672 561.507 134.672H562.633L559.795 128.867L560.381 126.937H563.145L565.529 132.501L566.251 131.925C566.353 131.844 567.264 131.078 567.938 129.214C567.971 129.125 568.002 129.035 568.032 128.944C569.009 125.966 568.341 122.579 566.29 120.104C565.609 119.283 565.138 118.319 564.928 117.316C564.808 116.745 564.747 116.159 564.747 115.574V82.8353C564.747 80.9014 563.174 79.3279 561.24 79.3279ZM559.007 90.1308H560.506V112.512H561.913V90.1308H563.341V115.574C563.341 115.969 563.368 116.365 563.415 116.757H558.976C558.995 116.505 559.007 116.251 559.007 115.998V90.1308H559.007ZM563.341 88.7246H559.007V88.2071H563.341V88.7246ZM561.108 80.7341H561.24C562.398 80.7341 563.341 81.6767 563.341 82.8353V86.8007H559.007V82.8353C559.007 81.6767 559.949 80.7341 561.108 80.7341ZM565.207 121.002C566.953 123.107 567.523 125.983 566.696 128.506C566.67 128.583 566.644 128.659 566.616 128.736C566.419 129.282 566.199 129.708 566 130.029L564.073 125.531H559.338L558.289 128.988L560.327 133.157C557.357 132.601 555.102 129.989 555.102 126.86C555.102 125.393 555.61 123.96 556.533 122.823C557.653 121.446 558.418 119.841 558.775 118.164H563.693C563.991 119.186 564.508 120.158 565.207 121.002Z" fill="#7468FD"/>
<path d="M561.21 84.7077C562.238 84.7077 563.075 83.8709 563.075 82.8423C563.075 81.8136 562.238 80.9768 561.21 80.9768C560.181 80.9768 559.344 81.8136 559.344 82.8423C559.344 83.8709 560.181 84.7077 561.21 84.7077ZM561.21 82.3831C561.463 82.3831 561.669 82.589 561.669 82.8423C561.669 83.0956 561.463 83.3015 561.21 83.3015C560.956 83.3015 560.75 83.0954 560.75 82.8423C560.75 82.589 560.956 82.3831 561.21 82.3831Z" fill="#7468FD"/>
<path d="M561.913 113.918H560.506V116.212H561.913V113.918Z" fill="#7468FD"/>
<path d="M541.217 129.292C540.188 129.292 539.351 130.129 539.351 131.158C539.351 132.186 540.188 133.023 541.217 133.023C542.246 133.023 543.082 132.186 543.082 131.158C543.082 130.129 542.246 129.292 541.217 129.292ZM541.217 131.617C540.964 131.617 540.758 131.411 540.758 131.158C540.758 130.904 540.964 130.698 541.217 130.698C541.47 130.698 541.676 130.904 541.676 131.158C541.676 131.411 541.47 131.617 541.217 131.617Z" fill="#7468FD"/>
<path d="M547.547 91.2187C548.298 89.9937 548.695 88.5832 548.695 87.1396C548.695 82.8321 545.191 79.3279 540.884 79.3279H539.757L542.596 85.133L542.01 87.0624H539.245L536.861 81.4992L536.14 82.0749C536.039 82.155 533.781 84.0229 533.741 89.2033H531.941V92.4968L532.565 92.8561C533.071 93.1457 533.552 93.4789 533.996 93.8475C534.103 93.9361 534.209 94.028 534.311 94.1198C536.429 96.0301 537.644 98.7617 537.644 101.614V131.164C537.644 133.098 539.217 134.672 541.151 134.672H541.282C543.217 134.672 544.79 133.098 544.79 131.164V102.729V101.112C544.79 97.5803 545.743 94.1591 547.547 91.2187ZM536.392 83.9748L537.926 87.5541L535.892 89.2033H535.146C535.169 86.4906 535.857 84.8459 536.392 83.9748ZM535.252 93.0748C535.135 92.9694 535.014 92.8648 534.893 92.765C534.412 92.3656 533.893 92.0021 533.348 91.6842V90.6095H536.39L539.031 88.4686H543.052L544.102 85.0122L542.063 80.843C545.034 81.3982 547.289 84.0105 547.289 87.1396C547.289 88.3237 546.964 89.4798 546.348 90.4834C544.409 93.6451 543.384 97.3206 543.384 101.112V102.73V123.869H541.92V101.488H540.514V123.869H539.05V101.614C539.05 98.3643 537.666 95.2521 535.252 93.0748ZM539.05 125.275H543.384V125.793H539.05V125.275ZM541.283 133.266H541.152C539.993 133.266 539.05 132.323 539.05 131.164V127.199H543.384V131.164C543.384 132.323 542.441 133.266 541.283 133.266Z" fill="#7468FD"/>
<path d="M543.369 90.0229H537.663V94.0891H543.369V90.0229ZM539.069 91.4292H539.813V92.6829H539.069V91.4292ZM541.963 92.6829H541.219V91.4292H541.963V92.6829Z" fill="#7468FD"/>
<path d="M541.92 97.7883H540.514V100.082H541.92V97.7883Z" fill="#7468FD"/>
<g clip-path="url(#clip0_60_422)">
<path d="M503.003 144.008C502.708 144.008 502.446 143.821 502.351 143.544C502.163 142.993 501.937 142.448 501.681 141.925C501.553 141.665 501.608 141.35 501.816 141.141C503.003 139.954 503.003 138.034 501.816 136.848L500.309 135.34C499.125 134.157 497.199 134.157 496.016 135.34C495.807 135.549 495.492 135.603 495.232 135.476C494.709 135.22 494.164 134.995 493.612 134.806C493.335 134.711 493.149 134.449 493.149 134.153C493.149 132.479 491.788 131.117 490.114 131.117H487.981C486.307 131.117 484.945 132.479 484.945 134.154C484.945 134.449 484.759 134.711 484.482 134.806C483.93 134.995 483.386 135.22 482.863 135.476C482.603 135.604 482.287 135.549 482.079 135.34C480.895 134.157 478.969 134.157 477.786 135.34L476.278 136.848C475.092 138.035 475.092 139.955 476.278 141.141C476.487 141.35 476.541 141.665 476.414 141.925C476.158 142.448 475.932 142.993 475.744 143.544C475.649 143.821 475.387 144.008 475.091 144.008C473.417 144.008 472.055 145.369 472.055 147.043V149.176C472.055 150.85 473.417 152.212 475.092 152.212C475.387 152.212 475.649 152.398 475.744 152.675C475.933 153.227 476.158 153.771 476.414 154.294C476.542 154.554 476.487 154.87 476.278 155.078C475.092 156.265 475.092 158.185 476.278 159.371L477.786 160.879C478.972 162.065 480.893 162.065 482.079 160.879C482.287 160.67 482.603 160.616 482.863 160.743C483.386 160.999 483.93 161.225 484.482 161.413C484.759 161.508 484.946 161.77 484.946 162.067C484.946 163.74 486.307 165.102 487.981 165.102H490.114C491.788 165.102 493.149 163.74 493.149 162.065C493.149 161.77 493.335 161.508 493.613 161.413C494.165 161.225 494.709 160.999 495.232 160.743C495.492 160.616 495.807 160.67 496.016 160.879C497.202 162.065 499.123 162.065 500.309 160.879L501.817 159.371C503.003 158.185 503.003 156.265 501.817 155.078C501.608 154.87 501.553 154.554 501.681 154.294C501.937 153.771 502.163 153.226 502.351 152.675C502.446 152.398 502.708 152.212 503.004 152.212C504.678 152.212 506.04 150.85 506.04 149.176V147.043C506.04 145.369 504.678 144.008 503.003 144.008ZM495.677 154.739C492.021 158.394 486.074 158.394 482.418 154.739C478.763 151.083 478.763 145.136 482.418 141.48C486.082 137.817 492.012 137.816 495.677 141.48C499.332 145.136 499.332 151.083 495.677 154.739Z" fill="#7468FD"/>
<path d="M518.265 165.849C516.981 163.598 514.121 162.817 511.871 164.1L498.826 171.543C498.29 169.2 496.19 167.446 493.687 167.446H480.98C477.346 164.5 472.266 164.35 468.492 166.878V163.93C468.492 163.283 467.967 162.758 467.32 162.758H460.288C459.641 162.758 459.117 163.283 459.117 163.93V189.711C459.117 190.358 459.641 190.883 460.288 190.883H467.32C467.967 190.883 468.492 190.358 468.492 189.711V188.536C487.721 188.536 486.875 188.537 486.921 188.535C487.657 188.503 488.387 188.291 489.034 187.922L516.517 172.244C518.768 170.961 519.55 168.096 518.265 165.849ZM466.148 188.539H461.46V165.102H466.148V188.539ZM515.355 170.208L487.873 185.886C487.551 186.07 487.204 186.173 486.842 186.192H468.492V169.908C471.542 166.79 476.502 166.606 479.776 169.496C479.99 169.685 480.266 169.789 480.551 169.789H493.687C495.302 169.789 496.617 171.103 496.617 172.719C496.617 174.334 495.302 175.649 493.687 175.649H479.439C478.792 175.649 478.267 176.173 478.267 176.82C478.267 177.468 478.792 177.992 479.439 177.992H493.687C496.043 177.992 498.042 176.439 498.717 174.303L513.033 166.136C514.157 165.495 515.587 165.884 516.23 167.011C516.873 168.136 516.479 169.567 515.355 170.208Z" fill="#7468FD"/>
</g>
<g clip-path="url(#clip1_60_422)">
<path d="M815.778 220.552L831.095 124.774L906.382 185.928L815.778 220.552Z" stroke="#7468FD" stroke-width="13"/>
</g>
<defs>
<clipPath id="clip0_60_422">
<rect width="60" height="60" fill="white" transform="translate(459 131)"/>
</clipPath>
<clipPath id="clip1_60_422">
<rect width="178" height="112" fill="white" transform="translate(762 88)"/>
</clipPath>
</defs>
</svg>
