<svg width="1120" height="200" viewBox="0 0 1120 200" fill="none" xmlns="http://www.w3.org/2000/svg">
<path fill-rule="evenodd" clip-rule="evenodd" d="M648.739 200L823.519 0H0V200H284.46L459.122 1.89724e-05L479.037 2.60608e-05L304.375 200H648.739ZM668.66 200L843.44 0H1120V200L668.66 200Z" fill="#4F6A84"/>
<path d="M86.9375 168.75V140.625C86.9375 137.813 88.5 135.625 91.3125 134.687L126 122.812V109.375" stroke="#DB5472" stroke-width="2" stroke-miterlimit="10"/>
<path d="M195.062 168.75V140.625C195.062 137.813 193.5 135.625 190.688 134.687L156 122.812V109.375" stroke="#DB5472" stroke-width="2" stroke-miterlimit="10"/>
<path d="M167.25 65.625C167.25 51.25 155.375 39.375 141 39.375C126.625 39.375 114.75 51.25 114.75 65.625L117.25 97.1875C117.562 101.562 120.062 105.312 123.812 107.187L136.625 115.625H145.062L158.187 107.187C161 105.625 163.188 103.125 164.125 100C164.438 99.0625 164.437 98.125 164.75 97.1875L167.25 65.625Z" stroke="#DB5472" stroke-width="2" stroke-miterlimit="10"/>
<path d="M135.375 146.563L132.25 136.563L140.687 130.312L149.125 136.563L146 146.563H135.375Z" stroke="#DB5472" stroke-width="2" stroke-miterlimit="10"/>
<path d="M135.375 146.562L132.25 168.75" stroke="#DB5472" stroke-width="2" stroke-miterlimit="10"/>
<path d="M145.375 146.562L148.812 168.75" stroke="#DB5472" stroke-width="2" stroke-miterlimit="10"/>
<path d="M125.688 123.125L135.375 134.062" stroke="#DB5472" stroke-width="2" stroke-miterlimit="10"/>
<path d="M156.937 123.125L146.938 134.062" stroke="#DB5472" stroke-width="2" stroke-miterlimit="10"/>
<path d="M107.25 68.75V65C107.25 46.5625 122.25 31.25 140.687 31.25C159.125 31.25 174.125 46.25 174.125 64.6875V68.75" stroke="#DB5472" stroke-width="2" stroke-miterlimit="10"/>
<path d="M116.625 88.125C110.375 88.75 105.063 84.0625 104.438 78.125C103.813 71.875 108.5 66.5625 114.438 65.9375L116.625 88.125Z" stroke="#DB5472" stroke-width="2" stroke-miterlimit="10"/>
<path d="M165.688 88.125C171.938 88.75 177.25 84.0625 177.875 78.125C178.5 71.875 173.812 66.5625 167.875 65.9375L165.688 88.125Z" stroke="#DB5472" stroke-width="2" stroke-miterlimit="10"/>
<path d="M174.438 85V99.375L171.938 103.437H142.25" stroke="#DB5472" stroke-width="2" stroke-miterlimit="10"/>
<path d="M1029.03 172.312H1014.97C1013.83 172.312 1012.85 171.483 1012.66 170.353L1010.43 157.003C1006.53 156.183 1002.71 154.941 999.036 153.291L989.38 162.792C988.559 163.598 987.28 163.692 986.356 163.017L974.984 154.753C974.061 154.078 973.752 152.836 974.267 151.809L980.314 139.702C977.586 136.697 975.209 133.448 973.222 130.008L959.881 132.014C958.723 132.197 957.655 131.517 957.303 130.42L952.953 117.042C952.602 115.955 953.084 114.769 954.102 114.239L966.116 107.991C965.867 105.802 965.75 103.861 965.75 102C965.75 100.139 965.867 98.2031 966.12 96.0094L954.106 89.7656C953.089 89.2406 952.606 88.0547 952.958 86.9625L957.303 73.5844C957.655 72.4969 958.714 71.8125 959.881 71.9906L973.231 73.9922C973.972 72.7078 974.773 71.4422 975.617 70.2234C976.344 69.15 977.802 68.8922 978.87 69.6328C979.934 70.3688 980.202 71.8266 979.466 72.8906C978.406 74.4188 977.427 76.0266 976.545 77.6672C976.077 78.5344 975.13 79.0266 974.131 78.8719L961.147 76.9219L958.03 86.5219L969.73 92.6016C970.611 93.0562 971.103 94.0172 970.972 94.9969C970.606 97.6781 970.438 99.9047 970.438 102C970.438 104.095 970.606 106.322 970.967 109.003C971.098 109.983 970.606 110.944 969.725 111.398L958.025 117.483L961.147 127.083L974.131 125.133C975.097 124.973 976.077 125.466 976.545 126.342C978.739 130.42 981.523 134.236 984.828 137.672C985.512 138.384 985.681 139.458 985.236 140.344L979.344 152.128L987.509 158.062L996.908 148.809C997.616 148.116 998.68 147.947 999.575 148.369C1003.81 150.427 1008.29 151.884 1012.89 152.705C1013.86 152.878 1014.62 153.647 1014.79 154.627L1016.96 167.625H1027.04L1029.21 154.631C1029.37 153.652 1030.13 152.883 1031.11 152.709C1035.7 151.889 1040.18 150.436 1044.43 148.373C1045.31 147.947 1046.39 148.116 1047.09 148.814L1056.49 158.062L1064.65 152.128L1058.77 140.344C1058.32 139.458 1058.49 138.389 1059.18 137.672C1062.47 134.241 1065.26 130.425 1067.45 126.342C1067.92 125.47 1068.86 124.983 1069.87 125.133L1082.86 127.078L1085.98 117.478L1074.28 111.398C1073.39 110.944 1072.9 109.983 1073.03 109.003C1073.39 106.322 1073.56 104.095 1073.56 102C1073.56 99.9047 1073.39 97.6781 1073.03 94.9969C1072.9 94.0172 1073.39 93.0562 1074.28 92.6016L1085.98 86.5172L1082.85 76.9172L1069.87 78.8672C1068.88 79.0031 1067.92 78.5297 1067.45 77.6578C1065.26 73.5797 1062.48 69.7641 1059.17 66.3281C1058.49 65.6156 1058.32 64.5422 1058.76 63.6562L1064.66 51.8719L1056.49 45.9375L1047.09 55.1906C1046.38 55.8844 1045.32 56.0625 1044.42 55.6312C1040.18 53.5734 1035.71 52.1156 1031.11 51.2953C1030.13 51.1219 1029.37 50.3531 1029.21 49.3734L1027.04 36.375H1016.96L1014.79 49.3687C1014.63 50.3484 1013.87 51.1172 1012.89 51.2906C1008.3 52.1109 1003.82 53.5641 999.57 55.6266C998.689 56.0531 997.616 55.8844 996.908 55.1859L987.509 45.9422L979.344 51.8766L985.227 63.6562C985.803 64.8141 985.334 66.225 984.177 66.8016C983.019 67.3828 981.617 66.9094 981.036 65.7562L974.262 52.1953C973.752 51.1688 974.056 49.9266 974.984 49.2516L986.361 40.9828C987.28 40.3031 988.564 40.4062 989.384 41.2078L999.041 50.7047C1002.71 49.0547 1006.54 47.8125 1010.44 46.9922L1012.67 33.6422C1012.85 32.5172 1013.83 31.6875 1014.97 31.6875H1029.03C1030.17 31.6875 1031.15 32.5172 1031.34 33.6469L1033.57 46.9969C1037.47 47.8172 1041.29 49.0594 1044.96 50.7094L1054.62 41.2078C1055.44 40.4062 1056.72 40.3078 1057.64 40.9828L1069.02 49.2516C1069.95 49.9266 1070.26 51.1688 1069.74 52.1953L1063.7 64.3031C1066.42 67.3078 1068.8 70.5563 1070.79 73.9969L1084.13 71.9906C1085.29 71.8125 1086.35 72.4922 1086.71 73.5844L1091.06 86.9625C1091.41 88.05 1090.92 89.2359 1089.91 89.7656L1077.89 96.0141C1078.13 98.1984 1078.25 100.139 1078.25 102C1078.25 103.861 1078.13 105.797 1077.88 107.991L1089.89 114.234C1090.91 114.759 1091.39 115.945 1091.04 117.037L1086.7 130.416C1086.35 131.508 1085.28 132.202 1084.12 132.009L1070.77 130.008C1068.78 133.448 1066.41 136.702 1063.69 139.702L1069.73 151.805C1070.24 152.831 1069.93 154.073 1069.01 154.748L1057.63 163.017C1056.72 163.692 1055.43 163.594 1054.61 162.792L1044.95 153.295C1041.28 154.945 1037.46 156.188 1033.55 157.008L1031.33 170.358C1031.15 171.483 1030.17 172.312 1029.03 172.312ZM1022 120.75C1011.66 120.75 1003.25 112.341 1003.25 102C1003.25 91.6594 1011.66 83.25 1022 83.25C1032.34 83.25 1040.75 91.6594 1040.75 102C1040.75 112.341 1032.34 120.75 1022 120.75ZM1022 87.9375C1014.25 87.9375 1007.94 94.2469 1007.94 102C1007.94 109.753 1014.25 116.062 1022 116.062C1029.75 116.062 1036.06 109.753 1036.06 102C1036.06 94.2469 1029.75 87.9375 1022 87.9375Z" fill="#DB5472"/>
<path d="M1022 139.5C1001.32 139.5 984.5 122.677 984.5 102C984.5 81.3234 1001.32 64.5 1022 64.5C1042.68 64.5 1059.5 81.3234 1059.5 102C1059.5 110.348 1056.81 118.256 1051.73 124.866C1050.95 125.892 1049.47 126.08 1048.45 125.297C1047.42 124.509 1047.23 123.037 1048.02 122.011C1052.46 116.222 1054.81 109.308 1054.81 102C1054.81 83.9109 1040.09 69.1875 1022 69.1875C1003.91 69.1875 989.188 83.9109 989.188 102C989.188 120.089 1003.91 134.812 1022 134.812C1025.88 134.812 1029.7 134.133 1033.34 132.797C1034.56 132.361 1035.91 132.975 1036.35 134.194C1036.8 135.408 1036.17 136.753 1034.96 137.203C1030.79 138.727 1026.43 139.5 1022 139.5Z" fill="#DB5472"/>
<path d="M1043.09 132.469C1044.39 132.469 1045.44 131.419 1045.44 130.125C1045.44 128.831 1044.39 127.781 1043.09 127.781C1041.8 127.781 1040.75 128.831 1040.75 130.125C1040.75 131.419 1041.8 132.469 1043.09 132.469Z" fill="#DB5472"/>
<path d="M207.576 88.48C202.456 88.48 198.776 86.76 196.296 84.24L199.376 79.92C201.256 81.88 204.176 83.52 207.856 83.52C210.976 83.52 212.496 82.08 212.496 80.56C212.496 75.84 197.136 79.08 197.136 69.04C197.136 64.6 200.976 60.92 207.256 60.92C211.496 60.92 215.016 62.2 217.656 64.64L214.496 68.8C212.336 66.8 209.456 65.88 206.736 65.88C204.296 65.88 202.936 66.96 202.936 68.56C202.936 72.8 218.256 69.96 218.256 79.92C218.256 84.8 214.776 88.48 207.576 88.48ZM241.281 88H236.201V85.56C234.881 87.04 232.561 88.48 229.401 88.48C225.161 88.48 223.161 86.16 223.161 82.4V68.68H228.241V80.4C228.241 83.08 229.641 83.96 231.801 83.96C233.761 83.96 235.321 82.88 236.201 81.76V68.68H241.281V88ZM258.565 88.48C256.285 88.48 254.165 87.52 252.605 85.52V95.36H247.525V68.68H252.605V71.12C254.085 69.24 256.205 68.2 258.565 68.2C263.525 68.2 267.125 71.88 267.125 78.32C267.125 84.76 263.525 88.48 258.565 88.48ZM256.965 83.96C259.885 83.96 261.845 81.68 261.845 78.32C261.845 75 259.885 72.72 256.965 72.72C255.325 72.72 253.445 73.68 252.605 74.92V81.76C253.445 82.96 255.325 83.96 256.965 83.96ZM283.085 88.48C280.805 88.48 278.685 87.52 277.125 85.52V95.36H272.045V68.68H277.125V71.12C278.605 69.24 280.725 68.2 283.085 68.2C288.045 68.2 291.645 71.88 291.645 78.32C291.645 84.76 288.045 88.48 283.085 88.48ZM281.485 83.96C284.405 83.96 286.365 81.68 286.365 78.32C286.365 75 284.405 72.72 281.485 72.72C279.845 72.72 277.965 73.68 277.125 74.92V81.76C277.965 82.96 279.845 83.96 281.485 83.96ZM305.525 88.48C299.165 88.48 295.325 83.84 295.325 78.32C295.325 72.84 299.165 68.2 305.525 68.2C311.925 68.2 315.765 72.84 315.765 78.32C315.765 83.84 311.925 88.48 305.525 88.48ZM305.525 83.96C308.685 83.96 310.485 81.36 310.485 78.32C310.485 75.32 308.685 72.72 305.525 72.72C302.365 72.72 300.605 75.32 300.605 78.32C300.605 81.36 302.365 83.96 305.525 83.96ZM325.814 88H320.734V68.68H325.814V71.32C327.174 69.6 329.574 68.2 331.974 68.2V73.16C331.614 73.08 331.134 73.04 330.574 73.04C328.894 73.04 326.654 74 325.814 75.24V88ZM342.828 88.48C339.268 88.48 337.348 86.64 337.348 83.2V73.12H334.148V68.68H337.348V63.4H342.468V68.68H346.388V73.12H342.468V81.84C342.468 83.04 343.108 83.96 344.228 83.96C344.988 83.96 345.708 83.68 345.988 83.4L347.068 87.24C346.308 87.92 344.948 88.48 342.828 88.48Z" fill="white"/>
<path d="M624.444 57.8889H595.556V60.1111H624.444V57.8889Z" fill="#DB5472"/>
<path d="M611.111 24.5557H595.556V26.7779H611.111V24.5557Z" fill="#DB5472"/>
<path d="M624.444 51.2222H595.556V53.4444H624.444V51.2222Z" fill="#DB5472"/>
<path d="M611.111 17.8889H595.556V20.1111H611.111V17.8889Z" fill="#DB5472"/>
<path d="M617.778 9H616.667H593.333C590.889 9 588.889 10.9999 588.889 13.4444V64.5556C588.889 66.9999 590.889 69 593.333 69H626.667C629.111 69 631.111 66.9999 631.111 64.5556V25.6667V24.5557L617.778 9ZM617.778 12.3334L628.222 24.5557H620C618.889 24.5557 617.778 23.4446 617.778 22.3334V12.3334ZM628.889 64.5556C628.889 65.6666 628 66.7778 626.667 66.7778H593.333C592.222 66.7778 591.111 65.8889 591.111 64.5556V13.4444C591.111 12.3334 592 11.2222 593.333 11.2222H615.556V22.3333C615.556 24.7778 617.556 26.7778 620 26.7778H628.889V64.5556Z" fill="#DB5472"/>
<path d="M624.444 44.5557H595.556V46.7779H624.444V44.5557Z" fill="#DB5472"/>
<path d="M624.444 31.2222H595.556V33.4444H624.444V31.2222Z" fill="#DB5472"/>
<path d="M624.444 37.8889H595.556V40.1111H624.444V37.8889Z" fill="#DB5472"/>
<path d="M561.24 79.3279H561.108C559.174 79.3279 557.601 80.9014 557.601 82.8353V115.998C557.601 118.115 556.834 120.224 555.442 121.937C554.316 123.323 553.695 125.071 553.695 126.86C553.695 131.168 557.2 134.672 561.507 134.672H562.633L559.795 128.867L560.381 126.937H563.145L565.529 132.501L566.251 131.925C566.353 131.844 567.264 131.078 567.938 129.214C567.971 129.125 568.002 129.035 568.032 128.944C569.009 125.966 568.341 122.579 566.29 120.104C565.609 119.283 565.138 118.319 564.928 117.316C564.808 116.745 564.747 116.159 564.747 115.574V82.8353C564.747 80.9014 563.174 79.3279 561.24 79.3279ZM559.007 90.1308H560.506V112.512H561.913V90.1308H563.341V115.574C563.341 115.969 563.368 116.365 563.415 116.757H558.976C558.995 116.505 559.007 116.251 559.007 115.998V90.1308H559.007ZM563.341 88.7246H559.007V88.2071H563.341V88.7246ZM561.108 80.7341H561.24C562.398 80.7341 563.341 81.6767 563.341 82.8353V86.8007H559.007V82.8353C559.007 81.6767 559.949 80.7341 561.108 80.7341ZM565.207 121.002C566.953 123.107 567.523 125.983 566.696 128.506C566.67 128.583 566.644 128.659 566.616 128.736C566.419 129.282 566.199 129.708 566 130.029L564.073 125.531H559.338L558.289 128.988L560.327 133.157C557.357 132.601 555.102 129.989 555.102 126.86C555.102 125.393 555.61 123.96 556.533 122.823C557.653 121.446 558.418 119.841 558.775 118.164H563.693C563.991 119.186 564.508 120.158 565.207 121.002Z" fill="#DB5472"/>
<path d="M561.21 84.7077C562.238 84.7077 563.075 83.8709 563.075 82.8423C563.075 81.8136 562.238 80.9768 561.21 80.9768C560.181 80.9768 559.344 81.8136 559.344 82.8423C559.344 83.8709 560.181 84.7077 561.21 84.7077ZM561.21 82.3831C561.463 82.3831 561.669 82.589 561.669 82.8423C561.669 83.0956 561.463 83.3015 561.21 83.3015C560.956 83.3015 560.75 83.0954 560.75 82.8423C560.75 82.589 560.956 82.3831 561.21 82.3831Z" fill="#DB5472"/>
<path d="M561.913 113.918H560.506V116.212H561.913V113.918Z" fill="#DB5472"/>
<path d="M541.217 129.292C540.188 129.292 539.351 130.129 539.351 131.158C539.351 132.186 540.188 133.023 541.217 133.023C542.246 133.023 543.082 132.186 543.082 131.158C543.082 130.129 542.246 129.292 541.217 129.292ZM541.217 131.617C540.964 131.617 540.758 131.411 540.758 131.158C540.758 130.904 540.964 130.698 541.217 130.698C541.47 130.698 541.676 130.904 541.676 131.158C541.676 131.411 541.47 131.617 541.217 131.617Z" fill="#DB5472"/>
<path d="M547.547 91.2187C548.298 89.9937 548.695 88.5832 548.695 87.1396C548.695 82.8321 545.191 79.3279 540.884 79.3279H539.757L542.596 85.133L542.01 87.0624H539.245L536.861 81.4992L536.14 82.0749C536.039 82.155 533.781 84.0229 533.741 89.2033H531.941V92.4968L532.565 92.8561C533.071 93.1457 533.552 93.4789 533.996 93.8475C534.103 93.9361 534.209 94.028 534.311 94.1198C536.429 96.0301 537.644 98.7617 537.644 101.614V131.164C537.644 133.098 539.217 134.672 541.151 134.672H541.282C543.217 134.672 544.79 133.098 544.79 131.164V102.729V101.112C544.79 97.5803 545.743 94.1591 547.547 91.2187ZM536.392 83.9748L537.926 87.5541L535.892 89.2033H535.146C535.169 86.4906 535.857 84.8459 536.392 83.9748ZM535.252 93.0748C535.135 92.9694 535.014 92.8648 534.893 92.765C534.412 92.3656 533.893 92.0021 533.348 91.6842V90.6095H536.39L539.031 88.4686H543.052L544.102 85.0122L542.063 80.843C545.034 81.3982 547.289 84.0105 547.289 87.1396C547.289 88.3237 546.964 89.4798 546.348 90.4834C544.409 93.6451 543.384 97.3206 543.384 101.112V102.73V123.869H541.92V101.488H540.514V123.869H539.05V101.614C539.05 98.3643 537.666 95.2521 535.252 93.0748ZM539.05 125.275H543.384V125.793H539.05V125.275ZM541.283 133.266H541.152C539.993 133.266 539.05 132.323 539.05 131.164V127.199H543.384V131.164C543.384 132.323 542.441 133.266 541.283 133.266Z" fill="#DB5472"/>
<path d="M543.369 90.0229H537.663V94.0891H543.369V90.0229ZM539.069 91.4292H539.813V92.6829H539.069V91.4292ZM541.963 92.6829H541.219V91.4292H541.963V92.6829Z" fill="#DB5472"/>
<path d="M541.92 97.7883H540.514V100.082H541.92V97.7883Z" fill="#DB5472"/>
<g clip-path="url(#clip0_60_422)">
<path d="M503.003 144.008C502.708 144.008 502.446 143.821 502.351 143.544C502.163 142.993 501.937 142.448 501.681 141.925C501.553 141.665 501.608 141.35 501.816 141.141C503.003 139.954 503.003 138.034 501.816 136.848L500.309 135.34C499.125 134.157 497.199 134.157 496.016 135.34C495.807 135.549 495.492 135.603 495.232 135.476C494.709 135.22 494.164 134.995 493.613 134.806C493.335 134.711 493.149 134.449 493.149 134.153C493.149 132.479 491.788 131.117 490.114 131.117H487.981C486.307 131.117 484.945 132.479 484.945 134.154C484.945 134.449 484.759 134.711 484.482 134.806C483.93 134.995 483.386 135.22 482.863 135.476C482.603 135.604 482.287 135.549 482.079 135.34C480.895 134.157 478.969 134.157 477.786 135.34L476.278 136.848C475.092 138.035 475.092 139.955 476.278 141.141C476.487 141.35 476.541 141.665 476.414 141.925C476.158 142.448 475.932 142.993 475.744 143.544C475.649 143.821 475.387 144.008 475.091 144.008C473.417 144.008 472.055 145.369 472.055 147.043V149.176C472.055 150.85 473.417 152.212 475.092 152.212C475.387 152.212 475.649 152.398 475.744 152.675C475.933 153.227 476.158 153.771 476.414 154.294C476.542 154.554 476.487 154.87 476.278 155.078C475.092 156.265 475.092 158.185 476.278 159.371L477.786 160.879C478.972 162.065 480.893 162.065 482.079 160.879C482.288 160.67 482.603 160.616 482.863 160.743C483.386 160.999 483.93 161.225 484.482 161.413C484.759 161.508 484.946 161.77 484.946 162.067C484.946 163.74 486.307 165.102 487.981 165.102H490.114C491.788 165.102 493.149 163.74 493.149 162.065C493.149 161.77 493.335 161.508 493.613 161.413C494.165 161.225 494.709 160.999 495.232 160.743C495.492 160.616 495.807 160.67 496.016 160.879C497.202 162.065 499.123 162.065 500.309 160.879L501.817 159.371C503.003 158.185 503.003 156.265 501.817 155.078C501.608 154.87 501.553 154.554 501.681 154.294C501.937 153.771 502.163 153.226 502.351 152.675C502.446 152.398 502.708 152.212 503.004 152.212C504.678 152.212 506.04 150.85 506.04 149.176V147.043C506.04 145.369 504.678 144.008 503.003 144.008ZM495.677 154.739C492.021 158.394 486.074 158.394 482.418 154.739C478.763 151.083 478.763 145.136 482.418 141.48C486.082 137.817 492.012 137.816 495.677 141.48C499.332 145.136 499.332 151.083 495.677 154.739Z" fill="#DB5472"/>
<path d="M518.265 165.849C516.981 163.598 514.121 162.817 511.871 164.1L498.826 171.543C498.29 169.2 496.19 167.446 493.687 167.446H480.98C477.346 164.5 472.266 164.35 468.492 166.878V163.93C468.492 163.283 467.967 162.758 467.32 162.758H460.288C459.641 162.758 459.117 163.283 459.117 163.93V189.711C459.117 190.358 459.641 190.883 460.288 190.883H467.32C467.967 190.883 468.492 190.358 468.492 189.711V188.536C487.721 188.536 486.875 188.537 486.921 188.535C487.657 188.503 488.387 188.291 489.034 187.922L516.517 172.244C518.768 170.961 519.55 168.096 518.265 165.849ZM466.148 188.539H461.46V165.102H466.148V188.539ZM515.355 170.208L487.873 185.886C487.551 186.07 487.204 186.173 486.842 186.192H468.492V169.908C471.542 166.79 476.502 166.606 479.776 169.496C479.99 169.685 480.266 169.789 480.551 169.789H493.687C495.302 169.789 496.617 171.103 496.617 172.719C496.617 174.334 495.302 175.649 493.687 175.649H479.439C478.792 175.649 478.267 176.173 478.267 176.82C478.267 177.468 478.792 177.992 479.439 177.992H493.687C496.043 177.992 498.042 176.439 498.717 174.303L513.033 166.136C514.157 165.495 515.587 165.884 516.23 167.011C516.873 168.136 516.479 169.567 515.355 170.208Z" fill="#DB5472"/>
</g>
<g clip-path="url(#clip1_60_422)">
<path d="M815.778 220.552L831.095 124.774L906.382 185.928L815.778 220.552Z" stroke="#DB5472" stroke-width="13"/>
</g>
<defs>
<clipPath id="clip0_60_422">
<rect width="60" height="60" fill="white" transform="translate(459 131)"/>
</clipPath>
<clipPath id="clip1_60_422">
<rect width="178" height="112" fill="white" transform="translate(762 88)"/>
</clipPath>
</defs>
</svg>
