<svg width="103" height="107" viewBox="0 0 103 107" fill="none" xmlns="http://www.w3.org/2000/svg">
<circle cx="85.5" cy="89.5" r="16.5" stroke="#C21631" stroke-width="2"/>
<rect x="84" y="77" width="3" height="25" rx="0.3" fill="#C21631"/>
<rect x="98" y="88" width="3" height="25" rx="0.3" transform="rotate(90 98 88)" fill="#C21631"/>
<g clip-path="url(#clip0_150_16)">
<rect x="28.5" y="1.5" width="43" height="81" rx="21.5" stroke="#132041" stroke-width="3"/>
<rect x="30" y="28" width="40" height="3" fill="#132041"/>
</g>
<circle cx="28.5" cy="45.5" r="2.5" fill="#132041"/>
<circle cx="28.5" cy="45.5" r="2.5" fill="#132041"/>
<circle cx="71.5" cy="45.5" r="2.5" fill="#132041"/>
<circle cx="71.5" cy="45.5" r="2.5" fill="#132041"/>
<path fill-rule="evenodd" clip-rule="evenodd" d="M11.6615 31L3.38152 100H71.4987C72.3323 101.11 73.2947 102.117 74.3637 103H3.02152H0L0.36 100L9 28H91L96.7738 76.1147C95.7694 75.2679 94.6684 74.5321 93.4896 73.9261L88.3385 31H11.6615Z" fill="#132041"/>
<defs>
<clipPath id="clip0_150_16">
<rect width="46" height="44" fill="white" transform="translate(27)"/>
</clipPath>
</defs>
</svg>
