<svg width="236" height="249" viewBox="0 0 236 249" fill="none" xmlns="http://www.w3.org/2000/svg">
<g clip-path="url(#clip0_128_2)">
<path d="M227.022 215.715H8.97827V249H227.022V215.715Z" fill="#C21631"/>
<path d="M67.2523 203.553H56.2472V167.681L41.7794 203.553H37.0081L22.5403 167.681V203.553H11.6124V152.319H26.9268L39.3937 183.274L51.8607 152.319H67.2523V203.553ZM108.306 204.474C92.6839 204.474 85.1421 195.718 85.1421 183.121V152.319H96.2239V182.737C96.2239 189.88 100.38 194.796 108.306 194.796C116.233 194.796 120.311 189.88 120.311 182.737V152.319H131.47V183.044C131.47 195.795 123.928 204.474 108.306 204.474ZM160.206 203.553H149.278V152.319H160.206V203.553ZM206.18 203.553H192.482L172.627 152.319H185.094L199.331 191.724L213.491 152.319H225.958L206.18 203.553Z" fill="#132041"/>
<path fill-rule="evenodd" clip-rule="evenodd" d="M118 5.82078L175.076 91.936L235.786 0.33728L227.723 140.823H8.27757L0.21344 0.337321L60.9239 91.936L118 5.82078Z" fill="#C21631"/>
</g>
<defs>
<clipPath id="clip0_128_2">
<rect width="236" height="249" fill="white"/>
</clipPath>
</defs>
</svg>
