<svg version="1.1" xmlns="http://www.w3.org/2000/svg" xmlns:xlink="http://www.w3.org/1999/xlink" width="32" height="32" viewBox="0,0,256,256"><g fill="#ffffff" fill-rule="nonzero" stroke="none" stroke-width="1" stroke-linecap="butt" stroke-linejoin="miter" stroke-miterlimit="10" stroke-dasharray="" stroke-dashoffset="0" font-family="none" font-weight="none" font-size="none" text-anchor="none" style="mix-blend-mode: normal"><g transform="scale(8,8)"><path d="M16,0.5c-8.563,0 -15.5,6.938 -15.5,15.5c0,8.562 6.938,15.5 15.5,15.5c8.563,0 15.5,-6.938 15.5,-15.5c0,-8.562 -6.938,-15.5 -15.5,-15.5zM23.613,11.119l-2.544,11.988c-0.188,0.85 -0.694,1.056 -1.4,0.656l-3.875,-2.856l-1.869,1.8c-0.206,0.206 -0.381,0.381 -0.781,0.381l0.275,-3.944l7.181,-6.488c0.313,-0.275 -0.069,-0.431 -0.482,-0.156l-8.875,5.587l-3.825,-1.194c-0.831,-0.262 -0.85,-0.831 0.175,-1.231l14.944,-5.763c0.694,-0.25 1.3,0.169 1.075,1.219z"></path></g></g></svg>