<svg version="1.1" xmlns="http://www.w3.org/2000/svg" xmlns:xlink="http://www.w3.org/1999/xlink" width="32px" height="32px" viewBox="0,0,256,256"><g fill="#ffffff" fill-rule="nonzero" stroke="none" stroke-width="1" stroke-linecap="butt" stroke-linejoin="miter" stroke-miterlimit="10" stroke-dasharray="" stroke-dashoffset="0" font-family="none" font-weight="none" font-size="none" text-anchor="none" style="mix-blend-mode: normal"><g transform="translate(0.16,4) scale(8,8)"><g id="Layer_2"><path d="M16,17.5c-4.14214,0 -7.5,-3.35786 -7.5,-7.5c0,-4.14214 3.35786,-7.5 7.5,-7.5c4.14214,0 7.5,3.35786 7.5,7.5c0,4.14214 -3.35786,7.5 -7.5,7.5zM16,3.5c-3.58985,0 -6.5,2.91015 -6.5,6.5c0,3.58985 2.91015,6.5 6.5,6.5c3.58985,0 6.5,-2.91015 6.5,-6.5c-0.00551,-3.58757 -2.91243,-6.49449 -6.5,-6.5z"></path><path d="M26,28.5h-20c-0.27614,0 -0.5,-0.22386 -0.5,-0.5v-6c-0.00482,-0.04654 -0.00482,-0.09346 0,-0.14c0.48,-1.66 2,-2.81 3.4,-3.82c0.33,-0.25 0.64,-0.48 0.93,-0.72c0.20613,-0.15957 0.49942,-0.138 0.68,0.05c1.44055,1.4634 3.43942,2.23892 5.49,2.13c2.03817,0.1051 4.02323,-0.67071 5.45,-2.13c0.18058,-0.188 0.47387,-0.20957 0.68,-0.05c0.29,0.24 0.6,0.47 0.93,0.71c1.37,1 2.92,2.17 3.4,3.83c0.00482,0.04654 0.00482,0.09346 0,0.14v6c0.00084,0.26125 -0.19959,0.4791 -0.46,0.5zM6.5,27.5h19v-5.43c-0.41,-1.3 -1.79,-2.33 -3,-3.23l-0.61,-0.46c-1.60801,1.45396 -3.72423,2.21565 -5.89,2.12c-2.16494,0.09025 -4.27918,-0.67073 -5.89,-2.12l-0.62,0.46c-1.22,0.9 -2.6,1.93 -3,3.23z"></path></g></g></g></svg>