<svg version="1.1" xmlns="http://www.w3.org/2000/svg" xmlns:xlink="http://www.w3.org/1999/xlink" width="32" height="32" viewBox="0,0,256,256"><g fill="#ffffff" fill-rule="nonzero" stroke="none" stroke-width="1" stroke-linecap="butt" stroke-linejoin="miter" stroke-miterlimit="10" stroke-dasharray="" stroke-dashoffset="0" font-family="none" font-weight="none" font-size="none" text-anchor="none" style="mix-blend-mode: normal"><g transform="translate(0.004,-0.004) scale(8,8)"><path d="M20.911,0h-9.823c-8.964,0 -11.089,2.125 -11.089,11.089v9.823c0,8.964 2.125,11.089 11.089,11.089h9.823c8.964,0 11.089,-2.125 11.089,-11.089v-9.823c0,-8.964 -2.146,-11.089 -11.089,-11.089zM25.833,22.828h-2.323c-0.88,0 -1.151,-0.698 -2.734,-2.302c-1.375,-1.333 -1.984,-1.51 -2.323,-1.51c-0.479,0 -0.615,0.135 -0.615,0.792v2.099c0,0.563 -0.177,0.901 -1.667,0.901c-2.464,0 -5.198,-1.49 -7.115,-4.266c-2.891,-4.068 -3.682,-7.115 -3.682,-7.745c0,-0.339 0.135,-0.656 0.786,-0.656h2.328c0.589,0 0.813,0.271 1.042,0.901c1.151,3.323 3.068,6.234 3.859,6.234c0.292,0 0.427,-0.135 0.427,-0.88v-3.432c-0.089,-1.583 -0.922,-1.719 -0.922,-2.281c0,-0.271 0.224,-0.542 0.583,-0.542h3.661c0.495,0 0.677,0.271 0.677,0.854v4.63c0,0.5 0.224,0.677 0.359,0.677c0.292,0 0.542,-0.177 1.083,-0.719c1.672,-1.875 2.87,-4.766 2.87,-4.766c0.156,-0.339 0.427,-0.656 1.016,-0.656h2.328c0.698,0 0.854,0.359 0.698,0.859c-0.292,1.354 -3.141,5.375 -3.141,5.375c-0.245,0.406 -0.339,0.583 0,1.036c0.25,0.339 1.063,1.042 1.604,1.672c0.995,1.13 1.76,2.078 1.964,2.734c0.229,0.651 -0.109,0.99 -0.766,0.99z"></path></g></g></svg>