<svg width="1099" height="1099" viewBox="0 0 1099 1099" fill="none" xmlns="http://www.w3.org/2000/svg">
<path opacity="0.9" d="M576.975 27.4751C384.65 27.4751 214.305 131.88 126.385 291.235L0 164.85V522.025H357.175L203.315 368.165C274.75 230.79 412.125 137.375 576.975 137.375C802.27 137.375 989.1 324.205 989.1 549.5C989.1 774.795 802.27 961.625 576.975 961.625C395.64 961.625 247.275 846.23 186.83 686.875H71.435C131.88 906.675 335.195 1071.53 576.975 1071.53C868.21 1071.53 1099 835.24 1099 549.5C1099 263.76 862.715 27.4751 576.975 27.4751ZM494.55 302.225V582.47L752.815 736.33L796.775 664.895L576.975 533.015V302.225H494.55Z" fill="white"/>
</svg>
