<svg width="683" height="683" viewBox="0 0 683 683" fill="none" xmlns="http://www.w3.org/2000/svg">
<path d="M88.6666 88.6668L85.3333 91.8668V299.733V507.6L88.1333 511.2C90.1333 513.733 116.667 527.6 173.467 556.133L256 597.333V554.667V512H359.333H462.8L466 508.667L469.333 505.467V434V362.667H448H426.667V416V469.333H341.333H256V320V170.667L225.733 150.533C208.933 139.467 194.8 129.867 194.133 129.2C193.333 128.533 242.8 128 309.733 128H426.667V181.333V234.667H448H469.333V163.333V91.8668L466 88.6668L462.8 85.3335H277.333H91.8666L88.6666 88.6668Z" fill="white"/>
<path d="M512 245.067V277.333H408.667H305.2L302 280.667C298.8 283.733 298.667 284.8 298.667 298.667C298.667 312.533 298.8 313.6 302 316.667L305.2 320H408.667H512V352.267V384.667L554.933 341.6L598 298.667L554.933 255.733L512 212.667V245.067Z" fill="white"/>
</svg>
