<svg width="966" height="966" viewBox="0 0 966 966" fill="none" xmlns="http://www.w3.org/2000/svg">
<g clip-path="url(#clip0_52_8)">
<path d="M953.756 149.04C944.171 138.05 930.371 131.727 915.818 131.727H222.356L212.57 73.3155C208.556 49.1279 187.63 31.3635 163.091 31.3635H50.1818C22.4313 31.3635 0 53.7948 0 81.5453C0 109.296 22.4313 131.727 50.1818 131.727H120.587L213.925 691.957C214.327 694.215 215.481 696.072 216.183 698.18C216.986 700.839 217.639 703.348 218.893 705.757C220.499 709.069 222.657 711.879 224.915 714.739C226.471 716.697 227.876 718.654 229.682 720.36C232.593 723.07 235.955 724.977 239.367 726.883C241.274 727.937 242.93 729.342 244.988 730.145C250.809 732.504 256.931 733.909 263.404 733.909H815.455C843.205 733.909 865.636 711.478 865.636 683.727C865.636 655.977 843.205 633.545 815.455 633.545H305.959L297.628 583.364H865.636C890.627 583.364 911.804 564.997 915.316 540.308L965.498 189.035C967.556 174.582 963.24 159.98 953.756 149.04ZM857.959 232.091L843.657 332.454H664.909V232.091H857.959ZM614.727 232.091V332.454H464.182V232.091H614.727ZM614.727 382.636V483H464.182V382.636H614.727ZM414 232.091V332.454H263.455C260.795 332.454 258.386 333.207 256.028 333.96L239.066 232.091H414ZM264.157 382.636H414V483H280.868L264.157 382.636ZM664.909 483V382.636H836.43L822.129 483H664.909Z" fill="white"/>
<path d="M338.727 934.636C380.299 934.636 414 900.936 414 859.364C414 817.792 380.299 784.091 338.727 784.091C297.155 784.091 263.455 817.792 263.455 859.364C263.455 900.936 297.155 934.636 338.727 934.636Z" fill="white"/>
<path d="M790.364 934.636C831.936 934.636 865.636 900.936 865.636 859.364C865.636 817.792 831.936 784.091 790.364 784.091C748.792 784.091 715.091 817.792 715.091 859.364C715.091 900.936 748.792 934.636 790.364 934.636Z" fill="white"/>
</g>
<defs>
<clipPath id="clip0_52_8">
<rect width="966" height="966" fill="white"/>
</clipPath>
</defs>
</svg>
